<svg width="366" height="164" viewBox="0 0 366 164" fill="none" xmlns="http://www.w3.org/2000/svg">
<path d="M0 1.08333H18.1845C24.392 1.08333 28.9199 2.52778 31.768 5.41667C34.6162 8.23333 36.0403 12.6028 36.0403 18.525V21.5583C36.0403 25.4583 35.383 28.6361 34.0685 31.0917C32.827 33.5472 30.8917 35.3167 28.2626 36.4V36.6167C34.2511 38.6389 37.2453 43.9111 37.2453 52.4333V58.9333C37.2453 64.7833 35.6751 69.2611 32.5349 72.3667C29.4676 75.4 24.9397 76.9167 18.9513 76.9167H0V1.08333ZM16.7604 31.9583C19.1704 31.9583 20.9596 31.3444 22.1281 30.1167C23.3696 28.8889 23.9903 26.8306 23.9903 23.9417V19.7167C23.9903 16.9722 23.4791 14.9861 22.4567 13.7583C21.5073 12.5306 19.9737 11.9167 17.8558 11.9167H12.0499V31.9583H16.7604ZM18.9513 66.0833C21.0692 66.0833 22.6393 65.5417 23.6617 64.4583C24.6841 63.3028 25.1953 61.3528 25.1953 58.6083V52C25.1953 48.5333 24.5746 46.15 23.3331 44.85C22.1646 43.4778 20.1928 42.7917 17.4176 42.7917H12.0499V66.0833H18.9513Z" fill="white"/>
<path d="M60.6109 78C54.6955 78 50.1676 76.3389 47.0273 73.0167C43.887 69.6944 42.3169 65 42.3169 58.9333V19.0667C42.3169 13 43.887 8.30556 47.0273 4.98333C50.1676 1.66111 54.6955 0 60.6109 0C66.5263 0 71.0542 1.66111 74.1945 4.98333C77.3347 8.30556 78.9049 13 78.9049 19.0667V58.9333C78.9049 65 77.3347 69.6944 74.1945 73.0167C71.0542 76.3389 66.5263 78 60.6109 78ZM60.6109 67.1667C64.7736 67.1667 66.8549 64.675 66.8549 59.6917V18.3083C66.8549 13.325 64.7736 10.8333 60.6109 10.8333C56.4482 10.8333 54.3668 13.325 54.3668 18.3083V59.6917C54.3668 64.675 56.4482 67.1667 60.6109 67.1667Z" fill="white"/>
<path d="M103.376 78C97.4608 78 92.9329 76.3389 89.7926 73.0167C86.6524 69.6944 85.0822 65 85.0822 58.9333V19.0667C85.0822 13 86.6524 8.30556 89.7926 4.98333C92.9329 1.66111 97.4608 0 103.376 0C109.292 0 113.82 1.66111 116.96 4.98333C120.1 8.30556 121.67 13 121.67 19.0667V58.9333C121.67 65 120.1 69.6944 116.96 73.0167C113.82 76.3389 109.292 78 103.376 78ZM103.376 67.1667C107.539 67.1667 109.62 64.675 109.62 59.6917V18.3083C109.62 13.325 107.539 10.8333 103.376 10.8333C99.2135 10.8333 97.1322 13.325 97.1322 18.3083V59.6917C97.1322 64.675 99.2135 67.1667 103.376 67.1667Z" fill="white"/>
<path d="M128.724 1.08333H140.774V33.0417L156.11 1.08333H168.16L153.81 28.925L168.379 76.9167H155.781L145.594 43.1167L140.774 52.7583V76.9167H128.724V1.08333Z" fill="white"/>
<path d="M189.436 1.08333H206.634L214.303 55.3583H214.522L222.19 1.08333H239.388V76.9167H227.996V19.5H227.777L219.013 76.9167H208.935L200.171 19.5H199.952V76.9167H189.436V1.08333Z" fill="white"/>
<path d="M264.703 78C258.787 78 254.259 76.3389 251.119 73.0167C247.979 69.6944 246.409 65 246.409 58.9333V19.0667C246.409 13 247.979 8.30556 251.119 4.98333C254.259 1.66111 258.787 0 264.703 0C270.618 0 275.146 1.66111 278.286 4.98333C281.426 8.30556 282.997 13 282.997 19.0667V58.9333C282.997 65 281.426 69.6944 278.286 73.0167C275.146 76.3389 270.618 78 264.703 78ZM264.703 67.1667C268.865 67.1667 270.947 64.675 270.947 59.6917V18.3083C270.947 13.325 268.865 10.8333 264.703 10.8333C260.54 10.8333 258.458 13.325 258.458 18.3083V59.6917C258.458 64.675 260.54 67.1667 264.703 67.1667Z" fill="white"/>
<path d="M290.05 1.08333H307.906C314.114 1.08333 318.642 2.52778 321.49 5.41667C324.338 8.23333 325.762 12.6028 325.762 18.525V23.1833C325.762 31.0556 323.133 36.0389 317.875 38.1333V38.35C320.796 39.2167 322.841 40.9861 324.009 43.6583C325.251 46.3306 325.871 49.9056 325.871 54.3833V67.7083C325.871 69.875 325.944 71.6444 326.091 73.0167C326.237 74.3167 326.602 75.6167 327.186 76.9167H314.917C314.479 75.6889 314.187 74.5333 314.041 73.45C313.895 72.3667 313.822 70.4167 313.822 67.6V53.7333C313.822 50.2667 313.237 47.8472 312.069 46.475C310.973 45.1028 309.038 44.4167 306.263 44.4167H302.1V76.9167H290.05V1.08333ZM306.482 33.5833C308.892 33.5833 310.681 32.9694 311.85 31.7417C313.091 30.5139 313.712 28.4556 313.712 25.5667V19.7167C313.712 16.9722 313.201 14.9861 312.178 13.7583C311.229 12.5306 309.695 11.9167 307.577 11.9167H302.1V33.5833H306.482Z" fill="white"/>
<path d="M333.137 1.08333H366V11.9167H345.186V31.9583H361.728V42.7917H345.186V66.0833H366V76.9167H333.137V1.08333Z" fill="white"/>
<path d="M0 86.0972H17.2873L24.9949 141.068H25.2152L32.9229 86.0972H50.2101V162.903H38.7587V104.75H38.5385L29.7297 162.903H19.5996L10.7908 104.75H10.5706V162.903H0V86.0972Z" fill="white"/>
<path d="M75.655 164C69.709 164 65.1579 162.318 62.0014 158.953C58.8449 155.588 57.2666 150.833 57.2666 144.689V104.311C57.2666 98.1667 58.8449 93.412 62.0014 90.0472C65.1579 86.6824 69.709 85 75.655 85C81.6009 85 86.1521 86.6824 89.3086 90.0472C92.4651 93.412 94.0433 98.1667 94.0433 104.311V144.689C94.0433 150.833 92.4651 155.588 89.3086 158.953C86.1521 162.318 81.6009 164 75.655 164ZM75.655 153.028C79.8392 153.028 81.9312 150.504 81.9312 145.457V103.543C81.9312 98.4958 79.8392 95.9722 75.655 95.9722C71.4708 95.9722 69.3787 98.4958 69.3787 103.543V145.457C69.3787 150.504 71.4708 153.028 75.655 153.028Z" fill="white"/>
<path d="M97.7251 86.0972H109.947L117.875 145.676H118.095L126.023 86.0972H137.144L125.473 162.903H109.397L97.7251 86.0972Z" fill="white"/>
<path d="M141.861 86.0972H174.894V97.0694H153.973V117.368H170.6V128.34H153.973V151.931H174.894V162.903H141.861V86.0972Z" fill="white"/>
<path d="M196.722 164C190.849 164 186.408 162.354 183.398 159.062C180.389 155.698 178.884 150.906 178.884 144.689V140.3H190.335V145.567C190.335 150.541 192.427 153.028 196.612 153.028C198.667 153.028 200.209 152.443 201.236 151.272C202.337 150.029 202.888 148.054 202.888 145.347C202.888 142.129 202.154 139.312 200.686 136.899C199.218 134.412 196.501 131.449 192.538 128.011C187.546 123.622 184.059 119.672 182.077 116.161C180.095 112.577 179.104 108.554 179.104 104.092C179.104 98.0204 180.646 93.3389 183.729 90.0472C186.812 86.6824 191.29 85 197.162 85C202.961 85 207.329 86.6824 210.265 90.0472C213.275 93.3389 214.78 98.0935 214.78 104.311V107.493H203.328V103.543C203.328 100.91 202.815 99.0079 201.787 97.8375C200.759 96.594 199.254 95.9722 197.272 95.9722C193.235 95.9722 191.216 98.4227 191.216 103.324C191.216 106.103 191.95 108.7 193.418 111.114C194.96 113.528 197.713 116.454 201.677 119.892C206.742 124.281 210.229 128.267 212.137 131.851C214.046 135.436 215 139.642 215 144.469C215 150.76 213.422 155.588 210.265 158.953C207.182 162.318 202.668 164 196.722 164Z" fill="white"/>
</svg>
