<svg width="138" height="27" viewBox="0 0 138 27" fill="none" xmlns="http://www.w3.org/2000/svg">
<g opacity="0.54">
<path d="M12.0489 3.29619C12.3483 2.37488 13.6517 2.37488 13.9511 3.29619L15.6942 8.66094C15.828 9.07296 16.212 9.35192 16.6452 9.35192H22.2861C23.2548 9.35192 23.6576 10.5915 22.8738 11.1609L18.3103 14.4765C17.9598 14.7312 17.8132 15.1825 17.947 15.5946L19.6902 20.9593C19.9895 21.8806 18.935 22.6467 18.1513 22.0773L13.5878 18.7618C13.2373 18.5071 12.7627 18.5071 12.4122 18.7618L7.84869 22.0773C7.06498 22.6467 6.0105 21.8806 6.30985 20.9593L8.05296 15.5946C8.18683 15.1825 8.04018 14.7312 7.68969 14.4765L3.12616 11.1609C2.34245 10.5915 2.74523 9.35192 3.71395 9.35192H9.35477C9.788 9.35192 10.172 9.07296 10.3058 8.66094L12.0489 3.29619Z" fill="#C4C4C4"/>
<path d="M40.0489 3.29619C40.3483 2.37488 41.6517 2.37488 41.9511 3.29619L43.6942 8.66094C43.828 9.07296 44.212 9.35192 44.6452 9.35192H50.2861C51.2548 9.35192 51.6576 10.5915 50.8738 11.1609L46.3103 14.4765C45.9598 14.7312 45.8132 15.1825 45.947 15.5946L47.6902 20.9593C47.9895 21.8806 46.935 22.6467 46.1513 22.0773L41.5878 18.7618C41.2373 18.5071 40.7627 18.5071 40.4122 18.7618L35.8487 22.0773C35.065 22.6467 34.0105 21.8806 34.3098 20.9593L36.053 15.5946C36.1868 15.1825 36.0402 14.7312 35.6897 14.4765L31.1262 11.1609C30.3425 10.5915 30.7452 9.35192 31.7139 9.35192H37.3548C37.788 9.35192 38.172 9.07296 38.3058 8.66094L40.0489 3.29619Z" fill="#C4C4C4"/>
<path d="M68.0489 3.29619C68.3483 2.37488 69.6517 2.37488 69.9511 3.29619L71.6942 8.66094C71.828 9.07296 72.212 9.35192 72.6452 9.35192H78.2861C79.2548 9.35192 79.6576 10.5915 78.8738 11.1609L74.3103 14.4765C73.9598 14.7312 73.8132 15.1825 73.947 15.5946L75.6902 20.9593C75.9895 21.8806 74.935 22.6467 74.1513 22.0773L69.5878 18.7618C69.2373 18.5071 68.7627 18.5071 68.4122 18.7618L63.8487 22.0773C63.065 22.6467 62.0105 21.8806 62.3098 20.9593L64.053 15.5946C64.1868 15.1825 64.0402 14.7312 63.6897 14.4765L59.1262 11.1609C58.3425 10.5915 58.7452 9.35192 59.7139 9.35192H65.3548C65.788 9.35192 66.172 9.07296 66.3058 8.66094L68.0489 3.29619Z" fill="#C4C4C4"/>
<path d="M96.0489 3.29619C96.3483 2.37488 97.6517 2.37488 97.9511 3.29619L99.6942 8.66094C99.828 9.07296 100.212 9.35192 100.645 9.35192H106.286C107.255 9.35192 107.658 10.5915 106.874 11.1609L102.31 14.4765C101.96 14.7312 101.813 15.1825 101.947 15.5946L103.69 20.9593C103.99 21.8806 102.935 22.6467 102.151 22.0773L97.5878 18.7618C97.2373 18.5071 96.7627 18.5071 96.4122 18.7618L91.8487 22.0773C91.065 22.6467 90.0105 21.8806 90.3098 20.9593L92.053 15.5946C92.1868 15.1825 92.0402 14.7312 91.6897 14.4765L87.1262 11.1609C86.3425 10.5915 86.7452 9.35192 87.7139 9.35192H93.3548C93.788 9.35192 94.172 9.07296 94.3058 8.66094L96.0489 3.29619Z" fill="#C4C4C4"/>
<path d="M124.049 3.29619C124.348 2.37488 125.652 2.37488 125.951 3.29619L127.694 8.66094C127.828 9.07296 128.212 9.35192 128.645 9.35192H134.286C135.255 9.35192 135.658 10.5915 134.874 11.1609L130.31 14.4765C129.96 14.7312 129.813 15.1825 129.947 15.5946L131.69 20.9593C131.99 21.8806 130.935 22.6467 130.151 22.0773L125.588 18.7618C125.237 18.5071 124.763 18.5071 124.412 18.7618L119.849 22.0773C119.065 22.6467 118.01 21.8806 118.31 20.9593L120.053 15.5946C120.187 15.1825 120.04 14.7312 119.69 14.4765L115.126 11.1609C114.342 10.5915 114.745 9.35192 115.714 9.35192H121.355C121.788 9.35192 122.172 9.07296 122.306 8.66094L124.049 3.29619Z" fill="#C4C4C4"/>
</g>
</svg>
