<svg width="138" height="26" viewBox="0 0 138 26" fill="none" xmlns="http://www.w3.org/2000/svg">
<g opacity="0.79">
<path d="M12.0489 2.92705C12.3483 2.00574 13.6517 2.00574 13.9511 2.92705L15.6942 8.29179C15.828 8.70382 16.212 8.98278 16.6452 8.98278H22.2861C23.2548 8.98278 23.6576 10.2224 22.8738 10.7918L18.3103 14.1074C17.9598 14.362 17.8132 14.8134 17.947 15.2254L19.6902 20.5902C19.9895 21.5115 18.935 22.2776 18.1513 21.7082L13.5878 18.3926C13.2373 18.138 12.7627 18.138 12.4122 18.3926L7.84869 21.7082C7.06498 22.2776 6.0105 21.5115 6.30985 20.5902L8.05296 15.2254C8.18683 14.8134 8.04018 14.362 7.68969 14.1074L3.12616 10.7918C2.34245 10.2224 2.74523 8.98278 3.71395 8.98278H9.35477C9.788 8.98278 10.172 8.70382 10.3058 8.2918L12.0489 2.92705Z" fill="#333333"/>
<path d="M40.0489 2.92705C40.3483 2.00574 41.6517 2.00574 41.9511 2.92705L43.6942 8.29179C43.828 8.70382 44.212 8.98278 44.6452 8.98278H50.2861C51.2548 8.98278 51.6576 10.2224 50.8738 10.7918L46.3103 14.1074C45.9598 14.362 45.8132 14.8134 45.947 15.2254L47.6902 20.5902C47.9895 21.5115 46.935 22.2776 46.1513 21.7082L41.5878 18.3926C41.2373 18.138 40.7627 18.138 40.4122 18.3926L35.8487 21.7082C35.065 22.2776 34.0105 21.5115 34.3098 20.5902L36.053 15.2254C36.1868 14.8134 36.0402 14.362 35.6897 14.1074L31.1262 10.7918C30.3425 10.2224 30.7452 8.98278 31.7139 8.98278H37.3548C37.788 8.98278 38.172 8.70382 38.3058 8.2918L40.0489 2.92705Z" fill="#333333"/>
<path d="M68.0489 2.92705C68.3483 2.00574 69.6517 2.00574 69.9511 2.92705L71.6942 8.29179C71.828 8.70382 72.212 8.98278 72.6452 8.98278H78.2861C79.2548 8.98278 79.6576 10.2224 78.8738 10.7918L74.3103 14.1074C73.9598 14.362 73.8132 14.8134 73.947 15.2254L75.6902 20.5902C75.9895 21.5115 74.935 22.2776 74.1513 21.7082L69.5878 18.3926C69.2373 18.138 68.7627 18.138 68.4122 18.3926L63.8487 21.7082C63.065 22.2776 62.0105 21.5115 62.3098 20.5902L64.053 15.2254C64.1868 14.8134 64.0402 14.362 63.6897 14.1074L59.1262 10.7918C58.3425 10.2224 58.7452 8.98278 59.7139 8.98278H65.3548C65.788 8.98278 66.172 8.70382 66.3058 8.2918L68.0489 2.92705Z" fill="#333333"/>
<path d="M96.0489 2.92705C96.3483 2.00574 97.6517 2.00574 97.9511 2.92705L99.6942 8.29179C99.828 8.70382 100.212 8.98278 100.645 8.98278H106.286C107.255 8.98278 107.658 10.2224 106.874 10.7918L102.31 14.1074C101.96 14.362 101.813 14.8134 101.947 15.2254L103.69 20.5902C103.99 21.5115 102.935 22.2776 102.151 21.7082L97.5878 18.3926C97.2373 18.138 96.7627 18.138 96.4122 18.3926L91.8487 21.7082C91.065 22.2776 90.0105 21.5115 90.3098 20.5902L92.053 15.2254C92.1868 14.8134 92.0402 14.362 91.6897 14.1074L87.1262 10.7918C86.3425 10.2224 86.7452 8.98278 87.7139 8.98278H93.3548C93.788 8.98278 94.172 8.70382 94.3058 8.2918L96.0489 2.92705Z" fill="#333333"/>
<path d="M124.049 2.92705C124.348 2.00574 125.652 2.00574 125.951 2.92705L127.694 8.29179C127.828 8.70382 128.212 8.98278 128.645 8.98278H134.286C135.255 8.98278 135.658 10.2224 134.874 10.7918L130.31 14.1074C129.96 14.362 129.813 14.8134 129.947 15.2254L131.69 20.5902C131.99 21.5115 130.935 22.2776 130.151 21.7082L125.588 18.3926C125.237 18.138 124.763 18.138 124.412 18.3926L119.849 21.7082C119.065 22.2776 118.01 21.5115 118.31 20.5902L120.053 15.2254C120.187 14.8134 120.04 14.362 119.69 14.1074L115.126 10.7918C114.342 10.2224 114.745 8.98278 115.714 8.98278H121.355C121.788 8.98278 122.172 8.70382 122.306 8.2918L124.049 2.92705Z" fill="#333333"/>
</g>
</svg>
