<svg width="22" height="22" viewBox="0 0 22 22" fill="none" xmlns="http://www.w3.org/2000/svg">
<rect width="22" height="22" rx="3" fill="white"/>
<path fill-rule="evenodd" clip-rule="evenodd" d="M19 6.41979C18.4479 6.66072 17.8555 6.82412 17.2331 6.89707C17.8687 6.52226 18.3551 5.92776 18.5857 5.22155C17.9896 5.56864 17.3315 5.82068 16.6304 5.95731C16.069 5.36742 15.2704 5 14.3846 5C12.6852 5 11.3073 6.35703 11.3073 8.02977C11.3073 8.26701 11.3345 8.49872 11.387 8.72029C8.83001 8.5938 6.56263 7.38726 5.0451 5.55387C4.77983 6.00069 4.62892 6.52132 4.62892 7.07707C4.62892 8.12855 5.17258 9.05631 5.99743 9.5991C5.49314 9.58249 5.01885 9.44587 4.60363 9.21876V9.25661C4.60363 10.7244 5.66468 11.9494 7.0716 12.2282C6.81383 12.2965 6.54201 12.3344 6.26081 12.3344C6.06211 12.3344 5.86995 12.315 5.68155 12.2781C6.07334 13.4828 7.20939 14.3588 8.5554 14.3829C7.50278 15.1952 6.17552 15.678 4.73392 15.678C4.48554 15.678 4.24088 15.6633 4 15.6365C5.36194 16.4978 6.97883 17 8.71663 17C14.3771 17 17.4712 12.3824 17.4712 8.37781L17.4609 7.98547C18.0655 7.5608 18.5885 7.02722 19 6.41979Z" fill="black"/>
</svg>
