<svg width="22" height="22" viewBox="0 0 22 22" fill="none" xmlns="http://www.w3.org/2000/svg">
<rect width="22" height="22" rx="3" fill="white"/>
<path fill-rule="evenodd" clip-rule="evenodd" d="M8.13937 4H14.8605C17.1431 4 19.0001 5.85701 19 8.13946V14.8605C19 17.143 17.1431 19 14.8605 19H8.13937C5.85692 19 4 17.1431 4 14.8605V8.13946C4 5.85701 5.85692 4 8.13937 4ZM14.8606 17.6691C16.4093 17.6691 17.6693 16.4092 17.6693 14.8605H17.6692V8.13946C17.6692 6.59085 16.4092 5.33087 14.8606 5.33087H8.13947C6.59087 5.33087 5.33097 6.59085 5.33097 8.13946V14.8605C5.33097 16.4092 6.59087 17.6692 8.13947 17.6691H14.8606ZM7.57137 11.5001C7.57137 9.33379 9.33369 7.57142 11.4999 7.57142C13.6662 7.57142 15.4285 9.33379 15.4285 11.5001C15.4285 13.6663 13.6662 15.4286 11.4999 15.4286C9.33369 15.4286 7.57137 13.6663 7.57137 11.5001ZM8.92411 11.5C8.92411 12.9203 10.0797 14.0758 11.5 14.0758C12.9202 14.0758 14.0758 12.9203 14.0758 11.5C14.0758 10.0796 12.9203 8.92411 11.5 8.92411C10.0796 8.92411 8.92411 10.0796 8.92411 11.5Z" fill="black"/>
</svg>
