<svg width="122" height="114" viewBox="0 0 122 114" fill="none" xmlns="http://www.w3.org/2000/svg">
<g opacity="0.79">
<rect x="14.2966" y="14.8174" width="107.517" height="99.1828" rx="20" fill="url(#paint0_linear)"/>
</g>
<g opacity="0.07">
<path d="M63.6937 71.456L54.9153 81.6464C54.4094 82.2477 53.6357 82.4059 52.9513 82.1211L47.9224 80.0324V92.1533L63.6937 97.565V71.456ZM44.3515 78.5766L34.2936 74.3992C33.1033 73.8928 32.8057 72.3105 33.6687 71.2977L43.5778 59.8098L31.6452 49.3662C30.5144 48.3535 30.931 46.3597 32.4189 46.0432L60.3906 40.0302C60.8965 39.9353 61.4619 40.0619 61.8785 40.4416L73.3945 50.6321L82.7085 44.3975C83.0953 44.1444 83.6012 44.0178 84.1071 44.176L104.55 49.8409C106.068 50.2523 106.514 52.3727 105.145 53.2904L95.6231 59.7781L106.455 68.8925C107.615 69.8736 107.199 71.8357 105.77 72.2155L94.3436 75.1587V93.166C94.3436 94.0205 93.8079 94.8117 92.9747 95.0016L66.0445 101.932C65.6279 102.027 65.2113 102.027 64.7947 101.901L45.7203 95.3813C44.9466 95.1282 44.3515 94.4319 44.3515 93.5458V78.5766ZM47.0892 58.0059L69.8236 52.436L60.2418 43.9228L36.7634 48.9864L47.0892 58.0059ZM76.8463 52.7841L91.7547 57.9109L99.7594 52.436L83.9285 48.037L76.8463 52.7841ZM91.6356 61.2655L68.9309 67.0886L78.6913 75.2853L101.396 69.4622L91.6356 61.2655ZM62.6819 67.0254L47.0296 61.3921L38.0132 71.8357L53.1299 78.1336L62.6819 67.0254Z" fill="url(#paint1_linear)"/>
<path d="M63.6937 71.456L54.9153 81.6464C54.4094 82.2477 53.6357 82.4059 52.9513 82.1211L47.9224 80.0324V92.1533L63.6937 97.565V71.456ZM44.3515 78.5766L34.2936 74.3992C33.1033 73.8928 32.8057 72.3105 33.6687 71.2977L43.5778 59.8098L31.6452 49.3662C30.5144 48.3535 30.931 46.3597 32.4189 46.0432L60.3906 40.0302C60.8965 39.9353 61.4619 40.0619 61.8785 40.4416L73.3945 50.6321L82.7085 44.3975C83.0953 44.1444 83.6012 44.0178 84.1071 44.176L104.55 49.8409C106.068 50.2523 106.514 52.3727 105.145 53.2904L95.6231 59.7781L106.455 68.8925C107.615 69.8736 107.199 71.8357 105.77 72.2155L94.3436 75.1587V93.166C94.3436 94.0205 93.8079 94.8117 92.9747 95.0016L66.0445 101.932C65.6279 102.027 65.2113 102.027 64.7947 101.901L45.7203 95.3813C44.9466 95.1282 44.3515 94.4319 44.3515 93.5458V78.5766ZM47.0892 58.0059L69.8236 52.436L60.2418 43.9228L36.7634 48.9864L47.0892 58.0059ZM76.8463 52.7841L91.7547 57.9109L99.7594 52.436L83.9285 48.037L76.8463 52.7841ZM91.6356 61.2655L68.9309 67.0886L78.6913 75.2853L101.396 69.4622L91.6356 61.2655ZM62.6819 67.0254L47.0296 61.3921L38.0132 71.8357L53.1299 78.1336L62.6819 67.0254Z" fill="url(#paint2_linear)"/>
</g>
<g opacity="0.82">
<path d="M63.0147 69.8409L55.0508 78.9994C54.5919 79.5398 53.89 79.682 53.2691 79.426L48.7067 77.5488V88.4423L63.0147 93.3059V69.8409ZM45.4672 76.2404L36.3425 72.486C35.2626 72.0309 34.9927 70.6088 35.7756 69.6987L44.7653 59.374L33.9398 49.988C32.914 49.0778 33.2919 47.286 34.6417 47.0015L60.0181 41.5975C60.4771 41.5121 60.99 41.6259 61.368 41.9672L71.8155 51.1257L80.2653 45.5225C80.6162 45.295 81.0752 45.1812 81.5341 45.3234L100.081 50.4146C101.457 50.7844 101.862 52.69 100.62 53.5149L91.9816 59.3456L101.808 67.537C102.861 68.4187 102.483 70.1822 101.187 70.5235L90.8208 73.1686V89.3524C90.8208 90.1204 90.3349 90.8314 89.579 91.0021L65.1474 97.231C64.7695 97.3163 64.3915 97.3163 64.0136 97.2026L46.709 91.3434C46.0071 91.1159 45.4672 90.4901 45.4672 89.6937V76.2404ZM47.9508 57.7528L68.5759 52.7469L59.8832 45.0959L38.5832 49.6467L47.9508 57.7528ZM74.947 53.0598L88.4721 57.6675L95.7341 52.7469L81.3721 48.7934L74.947 53.0598ZM88.3642 60.6824L67.7661 65.9158L76.6208 73.2824L97.2189 68.049L88.3642 60.6824ZM62.0969 65.8589L47.8969 60.7962L39.717 70.1822L53.4311 75.8422L62.0969 65.8589Z" fill="url(#paint3_linear)"/>
<path d="M63.0147 69.8409L55.0508 78.9994C54.5919 79.5398 53.89 79.682 53.2691 79.426L48.7067 77.5488V88.4423L63.0147 93.3059V69.8409ZM45.4672 76.2404L36.3425 72.486C35.2626 72.0309 34.9927 70.6088 35.7756 69.6987L44.7653 59.374L33.9398 49.988C32.914 49.0778 33.2919 47.286 34.6417 47.0015L60.0181 41.5975C60.4771 41.5121 60.99 41.6259 61.368 41.9672L71.8155 51.1257L80.2653 45.5225C80.6162 45.295 81.0752 45.1812 81.5341 45.3234L100.081 50.4146C101.457 50.7844 101.862 52.69 100.62 53.5149L91.9816 59.3456L101.808 67.537C102.861 68.4187 102.483 70.1822 101.187 70.5235L90.8208 73.1686V89.3524C90.8208 90.1204 90.3349 90.8314 89.579 91.0021L65.1474 97.231C64.7695 97.3163 64.3915 97.3163 64.0136 97.2026L46.709 91.3434C46.0071 91.1159 45.4672 90.4901 45.4672 89.6937V76.2404ZM47.9508 57.7528L68.5759 52.7469L59.8832 45.0959L38.5832 49.6467L47.9508 57.7528ZM74.947 53.0598L88.4721 57.6675L95.7341 52.7469L81.3721 48.7934L74.947 53.0598ZM88.3642 60.6824L67.7661 65.9158L76.6208 73.2824L97.2189 68.049L88.3642 60.6824ZM62.0969 65.8589L47.8969 60.7962L39.717 70.1822L53.4311 75.8422L62.0969 65.8589Z" fill="url(#paint4_linear)"/>
</g>
<rect width="35" height="36.8421" rx="7" fill="white"/>
<path d="M9.18511 30.3948C8.54917 30.3948 8.02885 29.8893 8.02885 29.2714C8.02885 28.6536 8.54917 28.148 9.18511 28.148H27.3964C28.0323 28.148 28.5526 28.6536 28.5526 29.2714C28.5526 29.8893 28.0323 30.3948 27.3964 30.3948H9.18511ZM10.0138 24.6656L7.89395 23.0929C6.62205 22.1567 7.97103 21.3142 8.66479 21.6887L10.2065 22.5312L11.9409 19.7228C12.8081 18.3185 13.9065 19.2734 13.4826 20.0972L11.17 24.4971C10.9581 24.8715 10.3799 24.9277 10.0138 24.6656ZM16.8936 23.6546C16.2576 23.6546 15.7373 23.149 15.7373 22.5312C15.7373 21.9133 16.2576 21.4078 16.8936 21.4078H27.3964C28.0323 21.4078 28.5526 21.9133 28.5526 22.5312C28.5526 23.149 28.0323 23.6546 27.3964 23.6546H16.8936ZM10.0138 17.9254L7.89395 16.3526C6.62205 15.4165 7.97103 14.574 8.66479 14.9484L10.2065 15.791L11.9409 12.9825C12.8081 11.5783 13.9065 12.5332 13.4826 13.357L11.17 17.7569C10.9581 18.1313 10.3799 18.1875 10.0138 17.9254ZM16.8936 16.9143C16.2576 16.9143 15.7373 16.4088 15.7373 15.791C15.7373 15.1731 16.2576 14.6676 16.8936 14.6676H27.3964C28.0323 14.6676 28.5526 15.1731 28.5526 15.791C28.5526 16.4088 28.0323 16.9143 27.3964 16.9143H16.8936ZM10.0138 11.1851L7.89395 9.61242C6.62205 8.67628 7.97103 7.83375 8.66479 8.2082L10.2065 9.05073L11.9409 6.2423C12.8081 4.83809 13.9065 5.79296 13.4826 6.61676L11.17 11.0166C10.9581 11.3911 10.3799 11.4473 10.0138 11.1851ZM16.8936 10.1741C16.2576 10.1741 15.7373 9.66859 15.7373 9.05073C15.7373 8.43288 16.2576 7.92736 16.8936 7.92736H27.3964C28.0323 7.92736 28.5526 8.43288 28.5526 9.05073C28.5526 9.66859 28.0323 10.1741 27.3964 10.1741H16.8936Z" fill="#010101"/>
<defs>
<linearGradient id="paint0_linear" x1="8.15481e-06" y1="227.926" x2="67.909" y2="-1.71307" gradientUnits="userSpaceOnUse">
<stop stop-color="#959595"/>
<stop offset="1" stop-color="#202123"/>
</linearGradient>
<linearGradient id="paint1_linear" x1="95.2318" y1="26" x2="68.5097" y2="119.126" gradientUnits="userSpaceOnUse">
<stop stop-color="#FBFBFB"/>
<stop offset="1" stop-color="#DCDCDC" stop-opacity="0"/>
</linearGradient>
<linearGradient id="paint2_linear" x1="69.0633" y1="40" x2="69.0633" y2="102" gradientUnits="userSpaceOnUse">
<stop stop-color="white"/>
<stop offset="1" stop-color="white" stop-opacity="0"/>
</linearGradient>
<linearGradient id="paint3_linear" x1="91.6266" y1="28.988" x2="67.8014" y2="112.802" gradientUnits="userSpaceOnUse">
<stop stop-color="#FBFBFB"/>
<stop offset="1" stop-color="#DCDCDC" stop-opacity="0"/>
</linearGradient>
<linearGradient id="paint4_linear" x1="67.8861" y1="41.5703" x2="67.8861" y2="97.2918" gradientUnits="userSpaceOnUse">
<stop stop-color="white"/>
<stop offset="1" stop-color="white" stop-opacity="0"/>
</linearGradient>
</defs>
</svg>
