<svg width="122" height="114" viewBox="0 0 122 114" fill="none" xmlns="http://www.w3.org/2000/svg">
<g opacity="0.79">
<rect x="14.2966" y="14.8174" width="107.517" height="99.1828" rx="20" fill="url(#paint0_linear)"/>
</g>
<rect width="34.9627" height="36.8029" rx="7" fill="white"/>
<path d="M25.0342 15.3955H17.3687" stroke="#010101" stroke-width="3" stroke-linecap="round" stroke-linejoin="round"/>
<path d="M6.44043 15.2852H12.8927" stroke="#010101" stroke-width="3" stroke-linecap="round" stroke-linejoin="round"/>
<path d="M19.5156 8.28125L29.4422 8.28125" stroke="#010101" stroke-width="3" stroke-linecap="round" stroke-linejoin="round"/>
<path d="M20.7876 22.6211L24.7582 22.6211" stroke="#010101" stroke-width="3" stroke-linecap="round" stroke-linejoin="round"/>
<path d="M20.8235 29.6387L27.8824 29.6387" stroke="#010101" stroke-width="3" stroke-linecap="round" stroke-linejoin="round"/>
<path d="M14.7214 22.6211L16.9273 22.6211" stroke="#010101" stroke-width="3" stroke-linecap="round" stroke-linejoin="round"/>
<g opacity="0.1">
<g opacity="0.88">
<path d="M88.2392 43.614L84.4317 53.883C84.4317 53.883 68.7866 53.9553 68.1636 53.9553C67.7482 53.9553 67.2636 54.0276 66.8483 54.1723C66.4329 54.3169 66.0176 54.6062 65.7407 54.8954C65.3945 55.257 65.1868 55.6186 64.9792 56.0525C64.7715 56.4864 64.7023 56.9926 64.7023 57.4265C64.7023 60.3915 66.9175 60.97 68.7174 61.3316C72.3864 61.9825 79.0321 61.9825 83.1857 64.9475C84.8471 65.9599 86.2316 67.4785 87.1316 69.2865C88.0315 71.0944 88.4469 73.1192 88.3084 75.1441C88.17 77.0244 87.6161 78.8323 86.7854 80.4956C85.9547 82.1588 84.7779 83.6052 83.3933 84.8346C80.2782 87.221 76.4707 88.5227 72.5941 88.4504C69.4096 88.3058 54.0414 88.4504 54.0414 88.4504V78.6876H69.4096V81.9419L79.6551 74.9272L69.4096 68.1294V71.1667C66.156 70.9497 63.0408 70.0096 60.1333 68.4187C58.3335 67.5509 56.8105 66.1045 55.7029 64.2966C54.5952 62.4887 54.0414 60.3915 54.0414 58.222C53.9722 55.8356 54.526 53.5214 55.6336 51.4242C56.7412 49.327 58.2642 47.5914 60.2026 46.3621C62.9716 44.4818 66.2945 43.4694 69.6173 43.5417H88.2392V43.614Z" fill="url(#paint1_linear)"/>
<path d="M88.2392 43.614L84.4317 53.883C84.4317 53.883 68.7866 53.9553 68.1636 53.9553C67.7482 53.9553 67.2636 54.0276 66.8483 54.1723C66.4329 54.3169 66.0176 54.6062 65.7407 54.8954C65.3945 55.257 65.1868 55.6186 64.9792 56.0525C64.7715 56.4864 64.7023 56.9926 64.7023 57.4265C64.7023 60.3915 66.9175 60.97 68.7174 61.3316C72.3864 61.9825 79.0321 61.9825 83.1857 64.9475C84.8471 65.9599 86.2316 67.4785 87.1316 69.2865C88.0315 71.0944 88.4469 73.1192 88.3084 75.1441C88.17 77.0244 87.6161 78.8323 86.7854 80.4956C85.9547 82.1588 84.7779 83.6052 83.3933 84.8346C80.2782 87.221 76.4707 88.5227 72.5941 88.4504C69.4096 88.3058 54.0414 88.4504 54.0414 88.4504V78.6876H69.4096V81.9419L79.6551 74.9272L69.4096 68.1294V71.1667C66.156 70.9497 63.0408 70.0096 60.1333 68.4187C58.3335 67.5509 56.8105 66.1045 55.7029 64.2966C54.5952 62.4887 54.0414 60.3915 54.0414 58.222C53.9722 55.8356 54.526 53.5214 55.6336 51.4242C56.7412 49.327 58.2642 47.5914 60.2026 46.3621C62.9716 44.4818 66.2945 43.4694 69.6173 43.5417H88.2392V43.614Z" fill="url(#paint2_linear)"/>
</g>
<path d="M61.3947 92.5371H70.7766L67.5005 100.704H58.1187L61.3947 92.5371Z" fill="url(#paint3_linear)"/>
<path d="M78.5446 31.2891H87.9265L84.6504 39.4555H75.2686L78.5446 31.2891Z" fill="url(#paint4_linear)"/>
</g>
<g opacity="0.88">
<path d="M82.4545 39.7586L78.6471 50.0275C78.6471 50.0275 63.0019 50.0998 62.3789 50.0998C61.9636 50.0998 61.479 50.1722 61.0636 50.3168C60.6483 50.4614 60.2329 50.7507 59.956 51.04C59.6099 51.4016 59.4022 51.7631 59.1945 52.197C58.9868 52.6309 58.9176 53.1372 58.9176 53.5711C58.9176 56.536 61.1328 57.1146 62.9327 57.4762C66.6017 58.127 73.2474 58.127 77.401 61.092C79.0624 62.1044 80.447 63.6231 81.3469 65.431C82.2468 67.2389 82.6622 69.2638 82.5237 71.2886C82.3853 73.1689 81.8315 74.9768 81.0008 76.6401C80.17 78.3034 78.9932 79.7497 77.6087 80.9791C74.4935 83.3655 70.6861 84.6672 66.8094 84.5949C63.625 84.4503 48.2568 84.5949 48.2568 84.5949V74.8322H63.625V78.0864L73.8705 71.0717L63.625 64.2739V67.3112C60.3713 67.0943 57.2562 66.1542 54.3487 64.5632C52.5488 63.6954 51.0258 62.2491 49.9182 60.4411C48.8106 58.6332 48.2568 56.536 48.2568 54.3665C48.1875 51.9801 48.7413 49.6659 49.849 47.5688C50.9566 45.4716 52.4796 43.736 54.4179 42.5066C57.1869 40.6264 60.5098 39.6139 63.8327 39.6862H82.4545V39.7586Z" fill="url(#paint5_linear)"/>
<path d="M82.4545 39.7586L78.6471 50.0275C78.6471 50.0275 63.0019 50.0998 62.3789 50.0998C61.9636 50.0998 61.479 50.1722 61.0636 50.3168C60.6483 50.4614 60.2329 50.7507 59.956 51.04C59.6099 51.4016 59.4022 51.7631 59.1945 52.197C58.9868 52.6309 58.9176 53.1372 58.9176 53.5711C58.9176 56.536 61.1328 57.1146 62.9327 57.4762C66.6017 58.127 73.2474 58.127 77.401 61.092C79.0624 62.1044 80.447 63.6231 81.3469 65.431C82.2468 67.2389 82.6622 69.2638 82.5237 71.2886C82.3853 73.1689 81.8315 74.9768 81.0008 76.6401C80.17 78.3034 78.9932 79.7497 77.6087 80.9791C74.4935 83.3655 70.6861 84.6672 66.8094 84.5949C63.625 84.4503 48.2568 84.5949 48.2568 84.5949V74.8322H63.625V78.0864L73.8705 71.0717L63.625 64.2739V67.3112C60.3713 67.0943 57.2562 66.1542 54.3487 64.5632C52.5488 63.6954 51.0258 62.2491 49.9182 60.4411C48.8106 58.6332 48.2568 56.536 48.2568 54.3665C48.1875 51.9801 48.7413 49.6659 49.849 47.5688C50.9566 45.4716 52.4796 43.736 54.4179 42.5066C57.1869 40.6264 60.5098 39.6139 63.8327 39.6862H82.4545V39.7586Z" fill="url(#paint6_linear)"/>
</g>
<path d="M55.61 88.6816H64.9919L61.7158 96.848H52.334L55.61 88.6816Z" fill="url(#paint7_linear)"/>
<path d="M72.7599 27.4336H82.1418L78.8657 35.6H69.4839L72.7599 27.4336Z" fill="url(#paint8_linear)"/>
<defs>
<linearGradient id="paint0_linear" x1="8.15481e-06" y1="227.926" x2="67.909" y2="-1.71307" gradientUnits="userSpaceOnUse">
<stop stop-color="#959595"/>
<stop offset="1" stop-color="#202123"/>
</linearGradient>
<linearGradient id="paint1_linear" x1="82.9753" y1="33.396" x2="55.1988" y2="93.599" gradientUnits="userSpaceOnUse">
<stop stop-color="#FBFBFB"/>
<stop offset="1" stop-color="#DCDCDC" stop-opacity="0"/>
</linearGradient>
<linearGradient id="paint2_linear" x1="71.1851" y1="43.5381" x2="71.1851" y2="88.4533" gradientUnits="userSpaceOnUse">
<stop stop-color="white"/>
<stop offset="1" stop-color="white" stop-opacity="0"/>
</linearGradient>
<linearGradient id="paint3_linear" x1="61.3852" y1="108.053" x2="65.8767" y2="82.7374" gradientUnits="userSpaceOnUse">
<stop stop-color="white"/>
<stop offset="1" stop-color="white" stop-opacity="0"/>
</linearGradient>
<linearGradient id="paint4_linear" x1="78.5351" y1="46.8052" x2="83.0266" y2="21.4894" gradientUnits="userSpaceOnUse">
<stop stop-color="white"/>
<stop offset="1" stop-color="white" stop-opacity="0"/>
</linearGradient>
<linearGradient id="paint5_linear" x1="77.1906" y1="29.5405" x2="49.4141" y2="89.7435" gradientUnits="userSpaceOnUse">
<stop stop-color="#FBFBFB"/>
<stop offset="1" stop-color="#DCDCDC" stop-opacity="0"/>
</linearGradient>
<linearGradient id="paint6_linear" x1="65.4004" y1="39.6826" x2="65.4004" y2="84.5978" gradientUnits="userSpaceOnUse">
<stop stop-color="white"/>
<stop offset="1" stop-color="white" stop-opacity="0"/>
</linearGradient>
<linearGradient id="paint7_linear" x1="55.6005" y1="104.198" x2="60.0921" y2="78.882" gradientUnits="userSpaceOnUse">
<stop stop-color="white"/>
<stop offset="1" stop-color="white" stop-opacity="0"/>
</linearGradient>
<linearGradient id="paint8_linear" x1="72.7504" y1="42.9497" x2="77.242" y2="17.6339" gradientUnits="userSpaceOnUse">
<stop stop-color="white"/>
<stop offset="1" stop-color="white" stop-opacity="0"/>
</linearGradient>
</defs>
</svg>
