<svg width="164" height="53" viewBox="0 0 164 53" fill="none" xmlns="http://www.w3.org/2000/svg">
<path d="M25.9065 0.0065918H33.5256V14.7566C33.5256 14.7566 35.0494 13.4659 40.3596 13.4659C42.022 13.3737 43.6843 13.6503 45.2081 14.2034C46.7781 14.8026 48.1634 15.7245 49.3178 16.8769C50.7493 18.6284 51.5343 20.7948 51.5804 23.0534V41.3987H44.0076V24.2979C44.0076 24.2979 43.8229 21.0714 39.0205 21.0714C34.4491 21.0714 33.5256 23.33 33.5256 25.0354V41.4448H25.8604L25.9065 0.0065918Z" fill="white"/>
<path d="M53.0586 12.8666H61.4165L68.4352 28.0314L74.5305 12.8666H83.1192L66.9114 52.8758H58.138L65.757 34.4384H62.5247L53.0586 12.8666Z" fill="white"/>
<path d="M90.6913 41.4447L90.6452 20.0111H83.0723L85.7505 13.558H90.7375V8.25727C90.7837 7.10493 91.0607 5.99868 91.5687 4.98462C92.0766 3.97056 92.8154 3.04869 93.739 2.26509C94.7548 1.43541 95.9554 0.790097 97.2483 0.421348C98.5413 0.052599 99.9266 -0.0856819 101.266 0.0525991C102.836 0.0525991 104.406 0.236974 105.929 0.559629V7.01274C105.006 6.64399 104.036 6.50571 103.02 6.50571C102.42 6.45961 101.82 6.5518 101.219 6.73618C100.665 6.92055 100.157 7.24321 99.7418 7.65805C99.2801 8.39555 99.0492 9.17914 99.003 10.0088C99.003 10.608 99.003 13.558 99.003 13.558H105.837V20.0572H98.7721L98.8183 41.4447H90.6913Z" fill="white"/>
<path d="M115.256 5.76831H122.737L122.783 13.3738H128.878L128.832 19.9651H122.645V32.3643C122.737 33.0096 123.06 33.655 123.568 34.0698C124.445 34.5768 125.461 34.8073 126.477 34.7151C127.262 34.669 128.093 34.5768 128.832 34.3925V40.8456C127.355 41.3065 125.785 41.537 124.215 41.4909C122.922 41.5831 121.582 41.4448 120.336 41.076C119.089 40.7073 117.935 40.1081 116.919 39.2784C116.134 38.6331 115.533 37.8034 115.118 36.8815C114.702 35.9596 114.518 34.9917 114.564 33.9776C114.564 31.8112 114.564 20.0573 114.564 20.0573H108.838L108.884 13.4199H111.978C112.486 13.4199 112.994 13.2355 113.456 13.005C113.917 12.7745 114.287 12.4058 114.564 11.991C115.072 11.2535 115.303 10.3777 115.256 9.50189V5.76831Z" fill="white"/>
<path d="M22.9047 12.8668L20.365 19.4121C20.365 19.4121 9.9292 19.4582 9.51362 19.4582C9.23656 19.4582 8.91333 19.5042 8.63627 19.5964C8.35922 19.6886 8.08216 19.873 7.89746 20.0574C7.66657 20.2878 7.52805 20.5183 7.38952 20.7949C7.25099 21.0714 7.20481 21.3941 7.20481 21.6706C7.20481 23.5605 8.68245 23.9292 9.88303 24.1597C12.3304 24.5745 16.7633 24.5745 19.5338 26.4644C20.642 27.1097 21.5656 28.0777 22.1659 29.23C22.7661 30.3823 23.0432 31.673 22.9509 32.9636C22.8585 34.162 22.4891 35.3144 21.935 36.3745C21.3809 37.4347 20.5959 38.3565 19.6724 39.1401C17.5944 40.6612 15.0547 41.4909 12.4689 41.4448C10.3448 41.3526 1.34045 41.4448 1.34045 41.4448V35.2222H10.3448V37.2964L17.1788 32.8253L10.3448 28.4925V30.4284C8.17451 30.2902 6.09659 29.6909 4.15719 28.6769C2.95662 28.1238 1.94074 27.2019 1.20193 26.0495C0.463108 24.8972 0.0936997 23.5605 0.0936997 22.1777C0.0475236 20.6566 0.416932 19.1816 1.15575 17.8449C1.89457 16.5082 2.91044 15.4019 4.20337 14.6183C6.05041 13.4199 8.26686 12.7746 10.4833 12.8207H22.9047V12.8668Z" fill="white"/>
<path d="M162.204 39.9115C162.674 40.5737 162.2 41.49 161.388 41.49H154.808C154.646 41.49 154.494 41.4115 154.401 41.2794L149.84 34.8526C149.332 34.1151 148.224 34.1151 147.716 34.8526L143.063 41.2831C142.969 41.4131 142.819 41.49 142.658 41.49H135.016C134.61 41.49 134.373 41.0317 134.608 40.7006L143.699 27.8924C144.022 27.4315 144.022 26.8323 143.699 26.3713L134.829 13.6987C134.597 13.3673 134.834 12.912 135.239 12.912H142.794C142.956 12.912 143.108 12.9905 143.202 13.1227L162.204 39.9115Z" fill="white"/>
<path d="M157.989 20.641C157.802 20.9101 157.496 21.0706 157.168 21.0706H150.755C149.944 21.0706 149.47 20.1564 149.938 19.494L154.252 13.3815C154.44 13.116 154.744 12.9581 155.069 12.9581H161.413C162.22 12.9581 162.694 13.8654 162.234 14.5285L157.989 20.641Z" fill="#F0F7FF" fill-opacity="0.72"/>
</svg>
