<svg width="147" height="159" viewBox="0 0 147 159" fill="none" xmlns="http://www.w3.org/2000/svg">
<g opacity="0.1">
<path fill-rule="evenodd" clip-rule="evenodd" d="M4.99476 2.49738C4.99476 3.87719 3.87719 4.99476 2.49738 4.99476C1.11758 4.99476 0 3.87719 0 2.49738C0 1.11758 1.11758 0 2.49738 0C3.87719 0 4.99476 1.11758 4.99476 2.49738Z" fill="black"/>
<path fill-rule="evenodd" clip-rule="evenodd" d="M4.99476 14.9842C4.99476 16.364 3.87719 17.4816 2.49738 17.4816C1.11758 17.4816 0 16.364 0 14.9842C0 13.6044 1.11758 12.4868 2.49738 12.4868C3.87719 12.4868 4.99476 13.6044 4.99476 14.9842Z" fill="black"/>
<path fill-rule="evenodd" clip-rule="evenodd" d="M18.3141 14.9842C18.3141 16.364 17.1965 17.4816 15.8167 17.4816C14.4369 17.4816 13.3193 16.364 13.3193 14.9842C13.3193 13.6044 14.4369 12.4868 15.8167 12.4868C17.1965 12.4868 18.3141 13.6044 18.3141 14.9842Z" fill="black"/>
<path fill-rule="evenodd" clip-rule="evenodd" d="M30.8012 14.9842C30.8012 16.364 29.6836 17.4816 28.3038 17.4816C26.924 17.4816 25.8064 16.364 25.8064 14.9842C25.8064 13.6044 26.924 12.4868 28.3038 12.4868C29.6836 12.4868 30.8012 13.6044 30.8012 14.9842Z" fill="black"/>
<path fill-rule="evenodd" clip-rule="evenodd" d="M43.288 14.9842C43.288 16.364 42.1704 17.4816 40.7906 17.4816C39.4108 17.4816 38.2932 16.364 38.2932 14.9842C38.2932 13.6044 39.4108 12.4868 40.7906 12.4868C42.1704 12.4868 43.288 13.6044 43.288 14.9842Z" fill="black"/>
<path fill-rule="evenodd" clip-rule="evenodd" d="M56.6073 14.9842C56.6073 16.364 55.4897 17.4816 54.1099 17.4816C52.7301 17.4816 51.6125 16.364 51.6125 14.9842C51.6125 13.6044 52.7301 12.4868 54.1099 12.4868C55.4897 12.4868 56.6073 13.6044 56.6073 14.9842Z" fill="black"/>
<path fill-rule="evenodd" clip-rule="evenodd" d="M69.0941 14.9842C69.0941 16.364 67.9766 17.4816 66.5967 17.4816C65.2169 17.4816 64.0994 16.364 64.0994 14.9842C64.0994 13.6044 65.2169 12.4868 66.5967 12.4868C67.9766 12.4868 69.0941 13.6044 69.0941 14.9842Z" fill="black"/>
<path fill-rule="evenodd" clip-rule="evenodd" d="M82.4137 14.9842C82.4137 16.364 81.2961 17.4816 79.9163 17.4816C78.5365 17.4816 77.4189 16.364 77.4189 14.9842C77.4189 13.6044 78.5365 12.4868 79.9163 12.4868C81.2961 12.4868 82.4137 13.6044 82.4137 14.9842Z" fill="black"/>
<path fill-rule="evenodd" clip-rule="evenodd" d="M94.9005 14.9842C94.9005 16.364 93.7829 17.4816 92.4031 17.4816C91.0233 17.4816 89.9058 16.364 89.9058 14.9842C89.9058 13.6044 91.0233 12.4868 92.4031 12.4868C93.7829 12.4868 94.9005 13.6044 94.9005 14.9842Z" fill="black"/>
<path fill-rule="evenodd" clip-rule="evenodd" d="M108.22 14.9842C108.22 16.364 107.102 17.4816 105.722 17.4816C104.343 17.4816 103.225 16.364 103.225 14.9842C103.225 13.6044 104.343 12.4868 105.722 12.4868C107.102 12.4868 108.22 13.6044 108.22 14.9842Z" fill="black"/>
<path fill-rule="evenodd" clip-rule="evenodd" d="M120.707 14.9842C120.707 16.364 119.589 17.4816 118.21 17.4816C116.83 17.4816 115.712 16.364 115.712 14.9842C115.712 13.6044 116.83 12.4868 118.21 12.4868C119.589 12.4868 120.707 13.6044 120.707 14.9842Z" fill="black"/>
<path fill-rule="evenodd" clip-rule="evenodd" d="M133.194 14.9842C133.194 16.364 132.076 17.4816 130.696 17.4816C129.317 17.4816 128.199 16.364 128.199 14.9842C128.199 13.6044 129.317 12.4868 130.696 12.4868C132.076 12.4868 133.194 13.6044 133.194 14.9842Z" fill="black"/>
<path fill-rule="evenodd" clip-rule="evenodd" d="M146.513 14.9842C146.513 16.364 145.395 17.4816 144.016 17.4816C142.636 17.4816 141.518 16.364 141.518 14.9842C141.518 13.6044 142.636 12.4868 144.016 12.4868C145.395 12.4868 146.513 13.6044 146.513 14.9842Z" fill="black"/>
<path fill-rule="evenodd" clip-rule="evenodd" d="M4.99476 28.3035C4.99476 29.6833 3.87719 30.8009 2.49738 30.8009C1.11758 30.8009 0 29.6833 0 28.3035C0 26.9237 1.11758 25.8062 2.49738 25.8062C3.87719 25.8062 4.99476 26.9237 4.99476 28.3035Z" fill="black"/>
<path fill-rule="evenodd" clip-rule="evenodd" d="M18.3141 28.3035C18.3141 29.6833 17.1965 30.8009 15.8167 30.8009C14.4369 30.8009 13.3193 29.6833 13.3193 28.3035C13.3193 26.9237 14.4369 25.8062 15.8167 25.8062C17.1965 25.8062 18.3141 26.9237 18.3141 28.3035Z" fill="black"/>
<path fill-rule="evenodd" clip-rule="evenodd" d="M30.8012 28.3035C30.8012 29.6833 29.6836 30.8009 28.3038 30.8009C26.924 30.8009 25.8064 29.6833 25.8064 28.3035C25.8064 26.9237 26.924 25.8062 28.3038 25.8062C29.6836 25.8062 30.8012 26.9237 30.8012 28.3035Z" fill="black"/>
<path fill-rule="evenodd" clip-rule="evenodd" d="M43.288 28.3035C43.288 29.6833 42.1704 30.8009 40.7906 30.8009C39.4108 30.8009 38.2932 29.6833 38.2932 28.3035C38.2932 26.9237 39.4108 25.8062 40.7906 25.8062C42.1704 25.8062 43.288 26.9237 43.288 28.3035Z" fill="black"/>
<path fill-rule="evenodd" clip-rule="evenodd" d="M56.6073 28.3035C56.6073 29.6833 55.4897 30.8009 54.1099 30.8009C52.7301 30.8009 51.6125 29.6833 51.6125 28.3035C51.6125 26.9237 52.7301 25.8062 54.1099 25.8062C55.4897 25.8062 56.6073 26.9237 56.6073 28.3035Z" fill="black"/>
<path fill-rule="evenodd" clip-rule="evenodd" d="M69.0941 28.3035C69.0941 29.6833 67.9766 30.8009 66.5967 30.8009C65.2169 30.8009 64.0994 29.6833 64.0994 28.3035C64.0994 26.9237 65.2169 25.8062 66.5967 25.8062C67.9766 25.8062 69.0941 26.9237 69.0941 28.3035Z" fill="black"/>
<path fill-rule="evenodd" clip-rule="evenodd" d="M82.4137 28.3035C82.4137 29.6833 81.2961 30.8009 79.9163 30.8009C78.5365 30.8009 77.4189 29.6833 77.4189 28.3035C77.4189 26.9237 78.5365 25.8062 79.9163 25.8062C81.2961 25.8062 82.4137 26.9237 82.4137 28.3035Z" fill="black"/>
<path fill-rule="evenodd" clip-rule="evenodd" d="M94.9005 28.3035C94.9005 29.6833 93.7829 30.8009 92.4031 30.8009C91.0233 30.8009 89.9058 29.6833 89.9058 28.3035C89.9058 26.9237 91.0233 25.8062 92.4031 25.8062C93.7829 25.8062 94.9005 26.9237 94.9005 28.3035Z" fill="black"/>
<path fill-rule="evenodd" clip-rule="evenodd" d="M108.22 28.3035C108.22 29.6833 107.102 30.8009 105.722 30.8009C104.343 30.8009 103.225 29.6833 103.225 28.3035C103.225 26.9237 104.343 25.8062 105.722 25.8062C107.102 25.8062 108.22 26.9237 108.22 28.3035Z" fill="black"/>
<path fill-rule="evenodd" clip-rule="evenodd" d="M120.707 28.3035C120.707 29.6833 119.589 30.8009 118.21 30.8009C116.83 30.8009 115.712 29.6833 115.712 28.3035C115.712 26.9237 116.83 25.8062 118.21 25.8062C119.589 25.8062 120.707 26.9237 120.707 28.3035Z" fill="black"/>
<path fill-rule="evenodd" clip-rule="evenodd" d="M133.194 28.3035C133.194 29.6833 132.076 30.8009 130.696 30.8009C129.317 30.8009 128.199 29.6833 128.199 28.3035C128.199 26.9237 129.317 25.8062 130.696 25.8062C132.076 25.8062 133.194 26.9237 133.194 28.3035Z" fill="black"/>
<path fill-rule="evenodd" clip-rule="evenodd" d="M146.513 28.3035C146.513 29.6833 145.395 30.8009 144.016 30.8009C142.636 30.8009 141.518 29.6833 141.518 28.3035C141.518 26.9237 142.636 25.8062 144.016 25.8062C145.395 25.8062 146.513 26.9237 146.513 28.3035Z" fill="black"/>
<path fill-rule="evenodd" clip-rule="evenodd" d="M4.99476 40.7904C4.99476 42.1702 3.87719 43.2877 2.49738 43.2877C1.11758 43.2877 0 42.1702 0 40.7904C0 39.4105 1.11758 38.293 2.49738 38.293C3.87719 38.293 4.99476 39.4105 4.99476 40.7904Z" fill="black"/>
<path fill-rule="evenodd" clip-rule="evenodd" d="M18.3141 40.7904C18.3141 42.1702 17.1965 43.2877 15.8167 43.2877C14.4369 43.2877 13.3193 42.1702 13.3193 40.7904C13.3193 39.4105 14.4369 38.293 15.8167 38.293C17.1965 38.293 18.3141 39.4105 18.3141 40.7904Z" fill="black"/>
<path fill-rule="evenodd" clip-rule="evenodd" d="M30.8012 40.7904C30.8012 42.1702 29.6836 43.2877 28.3038 43.2877C26.924 43.2877 25.8064 42.1702 25.8064 40.7904C25.8064 39.4105 26.924 38.293 28.3038 38.293C29.6836 38.293 30.8012 39.4105 30.8012 40.7904Z" fill="black"/>
<path fill-rule="evenodd" clip-rule="evenodd" d="M43.288 40.7904C43.288 42.1702 42.1704 43.2877 40.7906 43.2877C39.4108 43.2877 38.2932 42.1702 38.2932 40.7904C38.2932 39.4105 39.4108 38.293 40.7906 38.293C42.1704 38.293 43.288 39.4105 43.288 40.7904Z" fill="black"/>
<path fill-rule="evenodd" clip-rule="evenodd" d="M56.6073 40.7904C56.6073 42.1702 55.4897 43.2877 54.1099 43.2877C52.7301 43.2877 51.6125 42.1702 51.6125 40.7904C51.6125 39.4105 52.7301 38.293 54.1099 38.293C55.4897 38.293 56.6073 39.4105 56.6073 40.7904Z" fill="black"/>
<path fill-rule="evenodd" clip-rule="evenodd" d="M69.0941 40.7904C69.0941 42.1702 67.9766 43.2877 66.5967 43.2877C65.2169 43.2877 64.0994 42.1702 64.0994 40.7904C64.0994 39.4105 65.2169 38.293 66.5967 38.293C67.9766 38.293 69.0941 39.4105 69.0941 40.7904Z" fill="black"/>
<path fill-rule="evenodd" clip-rule="evenodd" d="M82.4137 40.7904C82.4137 42.1702 81.2961 43.2877 79.9163 43.2877C78.5365 43.2877 77.4189 42.1702 77.4189 40.7904C77.4189 39.4105 78.5365 38.293 79.9163 38.293C81.2961 38.293 82.4137 39.4105 82.4137 40.7904Z" fill="black"/>
<path fill-rule="evenodd" clip-rule="evenodd" d="M94.9005 40.7904C94.9005 42.1702 93.7829 43.2877 92.4031 43.2877C91.0233 43.2877 89.9058 42.1702 89.9058 40.7904C89.9058 39.4105 91.0233 38.293 92.4031 38.293C93.7829 38.293 94.9005 39.4105 94.9005 40.7904Z" fill="black"/>
<path fill-rule="evenodd" clip-rule="evenodd" d="M108.22 40.7904C108.22 42.1702 107.102 43.2877 105.722 43.2877C104.343 43.2877 103.225 42.1702 103.225 40.7904C103.225 39.4105 104.343 38.293 105.722 38.293C107.102 38.293 108.22 39.4105 108.22 40.7904Z" fill="black"/>
<path fill-rule="evenodd" clip-rule="evenodd" d="M120.707 40.7904C120.707 42.1702 119.589 43.2877 118.21 43.2877C116.83 43.2877 115.712 42.1702 115.712 40.7904C115.712 39.4105 116.83 38.293 118.21 38.293C119.589 38.293 120.707 39.4105 120.707 40.7904Z" fill="black"/>
<path fill-rule="evenodd" clip-rule="evenodd" d="M133.194 40.7904C133.194 42.1702 132.076 43.2877 130.696 43.2877C129.317 43.2877 128.199 42.1702 128.199 40.7904C128.199 39.4105 129.317 38.293 130.696 38.293C132.076 38.293 133.194 39.4105 133.194 40.7904Z" fill="black"/>
<path fill-rule="evenodd" clip-rule="evenodd" d="M146.513 40.7904C146.513 42.1702 145.395 43.2877 144.016 43.2877C142.636 43.2877 141.518 42.1702 141.518 40.7904C141.518 39.4105 142.636 38.293 144.016 38.293C145.395 38.293 146.513 39.4105 146.513 40.7904Z" fill="black"/>
<path fill-rule="evenodd" clip-rule="evenodd" d="M4.99476 54.1102C4.99476 55.49 3.87719 56.6076 2.49738 56.6076C1.11758 56.6076 0 55.49 0 54.1102C0 52.7304 1.11758 51.6128 2.49738 51.6128C3.87719 51.6128 4.99476 52.7304 4.99476 54.1102Z" fill="black"/>
<path fill-rule="evenodd" clip-rule="evenodd" d="M18.3141 54.1102C18.3141 55.49 17.1965 56.6076 15.8167 56.6076C14.4369 56.6076 13.3193 55.49 13.3193 54.1102C13.3193 52.7304 14.4369 51.6128 15.8167 51.6128C17.1965 51.6128 18.3141 52.7304 18.3141 54.1102Z" fill="black"/>
<path fill-rule="evenodd" clip-rule="evenodd" d="M30.8012 54.1102C30.8012 55.49 29.6836 56.6076 28.3038 56.6076C26.924 56.6076 25.8064 55.49 25.8064 54.1102C25.8064 52.7304 26.924 51.6128 28.3038 51.6128C29.6836 51.6128 30.8012 52.7304 30.8012 54.1102Z" fill="black"/>
<path fill-rule="evenodd" clip-rule="evenodd" d="M43.288 54.1102C43.288 55.49 42.1704 56.6076 40.7906 56.6076C39.4108 56.6076 38.2932 55.49 38.2932 54.1102C38.2932 52.7304 39.4108 51.6128 40.7906 51.6128C42.1704 51.6128 43.288 52.7304 43.288 54.1102Z" fill="black"/>
<path fill-rule="evenodd" clip-rule="evenodd" d="M56.6073 54.1102C56.6073 55.49 55.4897 56.6076 54.1099 56.6076C52.7301 56.6076 51.6125 55.49 51.6125 54.1102C51.6125 52.7304 52.7301 51.6128 54.1099 51.6128C55.4897 51.6128 56.6073 52.7304 56.6073 54.1102Z" fill="black"/>
<path fill-rule="evenodd" clip-rule="evenodd" d="M69.0941 54.1102C69.0941 55.49 67.9766 56.6076 66.5967 56.6076C65.2169 56.6076 64.0994 55.49 64.0994 54.1102C64.0994 52.7304 65.2169 51.6128 66.5967 51.6128C67.9766 51.6128 69.0941 52.7304 69.0941 54.1102Z" fill="black"/>
<path fill-rule="evenodd" clip-rule="evenodd" d="M82.4137 54.1102C82.4137 55.49 81.2961 56.6076 79.9163 56.6076C78.5365 56.6076 77.4189 55.49 77.4189 54.1102C77.4189 52.7304 78.5365 51.6128 79.9163 51.6128C81.2961 51.6128 82.4137 52.7304 82.4137 54.1102Z" fill="black"/>
<path fill-rule="evenodd" clip-rule="evenodd" d="M94.9005 54.1102C94.9005 55.49 93.7829 56.6076 92.4031 56.6076C91.0233 56.6076 89.9058 55.49 89.9058 54.1102C89.9058 52.7304 91.0233 51.6128 92.4031 51.6128C93.7829 51.6128 94.9005 52.7304 94.9005 54.1102Z" fill="black"/>
<path fill-rule="evenodd" clip-rule="evenodd" d="M108.22 54.1102C108.22 55.49 107.102 56.6076 105.722 56.6076C104.343 56.6076 103.225 55.49 103.225 54.1102C103.225 52.7304 104.343 51.6128 105.722 51.6128C107.102 51.6128 108.22 52.7304 108.22 54.1102Z" fill="black"/>
<path fill-rule="evenodd" clip-rule="evenodd" d="M120.707 54.1102C120.707 55.49 119.589 56.6076 118.21 56.6076C116.83 56.6076 115.712 55.49 115.712 54.1102C115.712 52.7304 116.83 51.6128 118.21 51.6128C119.589 51.6128 120.707 52.7304 120.707 54.1102Z" fill="black"/>
<path fill-rule="evenodd" clip-rule="evenodd" d="M133.194 54.1102C133.194 55.49 132.076 56.6076 130.696 56.6076C129.317 56.6076 128.199 55.49 128.199 54.1102C128.199 52.7304 129.317 51.6128 130.696 51.6128C132.076 51.6128 133.194 52.7304 133.194 54.1102Z" fill="black"/>
<path fill-rule="evenodd" clip-rule="evenodd" d="M146.513 54.1102C146.513 55.49 145.395 56.6076 144.016 56.6076C142.636 56.6076 141.518 55.49 141.518 54.1102C141.518 52.7304 142.636 51.6128 144.016 51.6128C145.395 51.6128 146.513 52.7304 146.513 54.1102Z" fill="black"/>
<path fill-rule="evenodd" clip-rule="evenodd" d="M4.99476 66.597C4.99476 67.9768 3.87719 69.0944 2.49738 69.0944C1.11758 69.0944 0 67.9768 0 66.597C0 65.2172 1.11758 64.0996 2.49738 64.0996C3.87719 64.0996 4.99476 65.2172 4.99476 66.597Z" fill="black"/>
<path fill-rule="evenodd" clip-rule="evenodd" d="M18.3141 66.597C18.3141 67.9768 17.1965 69.0944 15.8167 69.0944C14.4369 69.0944 13.3193 67.9768 13.3193 66.597C13.3193 65.2172 14.4369 64.0996 15.8167 64.0996C17.1965 64.0996 18.3141 65.2172 18.3141 66.597Z" fill="black"/>
<path fill-rule="evenodd" clip-rule="evenodd" d="M30.8012 66.597C30.8012 67.9768 29.6836 69.0944 28.3038 69.0944C26.924 69.0944 25.8064 67.9768 25.8064 66.597C25.8064 65.2172 26.924 64.0996 28.3038 64.0996C29.6836 64.0996 30.8012 65.2172 30.8012 66.597Z" fill="black"/>
<path fill-rule="evenodd" clip-rule="evenodd" d="M43.288 66.597C43.288 67.9768 42.1704 69.0944 40.7906 69.0944C39.4108 69.0944 38.2932 67.9768 38.2932 66.597C38.2932 65.2172 39.4108 64.0996 40.7906 64.0996C42.1704 64.0996 43.288 65.2172 43.288 66.597Z" fill="black"/>
<path fill-rule="evenodd" clip-rule="evenodd" d="M56.6073 66.597C56.6073 67.9768 55.4897 69.0944 54.1099 69.0944C52.7301 69.0944 51.6125 67.9768 51.6125 66.597C51.6125 65.2172 52.7301 64.0996 54.1099 64.0996C55.4897 64.0996 56.6073 65.2172 56.6073 66.597Z" fill="black"/>
<path fill-rule="evenodd" clip-rule="evenodd" d="M69.0941 66.597C69.0941 67.9768 67.9766 69.0944 66.5967 69.0944C65.2169 69.0944 64.0994 67.9768 64.0994 66.597C64.0994 65.2172 65.2169 64.0996 66.5967 64.0996C67.9766 64.0996 69.0941 65.2172 69.0941 66.597Z" fill="black"/>
<path fill-rule="evenodd" clip-rule="evenodd" d="M82.4137 66.597C82.4137 67.9768 81.2961 69.0944 79.9163 69.0944C78.5365 69.0944 77.4189 67.9768 77.4189 66.597C77.4189 65.2172 78.5365 64.0996 79.9163 64.0996C81.2961 64.0996 82.4137 65.2172 82.4137 66.597Z" fill="black"/>
<path fill-rule="evenodd" clip-rule="evenodd" d="M94.9005 66.597C94.9005 67.9768 93.7829 69.0944 92.4031 69.0944C91.0233 69.0944 89.9058 67.9768 89.9058 66.597C89.9058 65.2172 91.0233 64.0996 92.4031 64.0996C93.7829 64.0996 94.9005 65.2172 94.9005 66.597Z" fill="black"/>
<path fill-rule="evenodd" clip-rule="evenodd" d="M108.22 66.597C108.22 67.9768 107.102 69.0944 105.722 69.0944C104.343 69.0944 103.225 67.9768 103.225 66.597C103.225 65.2172 104.343 64.0996 105.722 64.0996C107.102 64.0996 108.22 65.2172 108.22 66.597Z" fill="black"/>
<path fill-rule="evenodd" clip-rule="evenodd" d="M120.707 66.597C120.707 67.9768 119.589 69.0944 118.21 69.0944C116.83 69.0944 115.712 67.9768 115.712 66.597C115.712 65.2172 116.83 64.0996 118.21 64.0996C119.589 64.0996 120.707 65.2172 120.707 66.597Z" fill="black"/>
<path fill-rule="evenodd" clip-rule="evenodd" d="M133.194 66.597C133.194 67.9768 132.076 69.0944 130.696 69.0944C129.317 69.0944 128.199 67.9768 128.199 66.597C128.199 65.2172 129.317 64.0996 130.696 64.0996C132.076 64.0996 133.194 65.2172 133.194 66.597Z" fill="black"/>
<path fill-rule="evenodd" clip-rule="evenodd" d="M146.513 66.597C146.513 67.9768 145.395 69.0944 144.016 69.0944C142.636 69.0944 141.518 67.9768 141.518 66.597C141.518 65.2172 142.636 64.0996 144.016 64.0996C145.395 64.0996 146.513 65.2172 146.513 66.597Z" fill="black"/>
<path fill-rule="evenodd" clip-rule="evenodd" d="M4.99476 79.9163C4.99476 81.2961 3.87719 82.4137 2.49738 82.4137C1.11758 82.4137 0 81.2961 0 79.9163C0 78.5365 1.11758 77.4189 2.49738 77.4189C3.87719 77.4189 4.99476 78.5365 4.99476 79.9163Z" fill="black"/>
<path fill-rule="evenodd" clip-rule="evenodd" d="M18.3141 79.9163C18.3141 81.2961 17.1965 82.4137 15.8167 82.4137C14.4369 82.4137 13.3193 81.2961 13.3193 79.9163C13.3193 78.5365 14.4369 77.4189 15.8167 77.4189C17.1965 77.4189 18.3141 78.5365 18.3141 79.9163Z" fill="black"/>
<path fill-rule="evenodd" clip-rule="evenodd" d="M30.8012 79.9163C30.8012 81.2961 29.6836 82.4137 28.3038 82.4137C26.924 82.4137 25.8064 81.2961 25.8064 79.9163C25.8064 78.5365 26.924 77.4189 28.3038 77.4189C29.6836 77.4189 30.8012 78.5365 30.8012 79.9163Z" fill="black"/>
<path fill-rule="evenodd" clip-rule="evenodd" d="M43.288 79.9163C43.288 81.2961 42.1704 82.4137 40.7906 82.4137C39.4108 82.4137 38.2932 81.2961 38.2932 79.9163C38.2932 78.5365 39.4108 77.4189 40.7906 77.4189C42.1704 77.4189 43.288 78.5365 43.288 79.9163Z" fill="black"/>
<path fill-rule="evenodd" clip-rule="evenodd" d="M56.6073 79.9163C56.6073 81.2961 55.4897 82.4137 54.1099 82.4137C52.7301 82.4137 51.6125 81.2961 51.6125 79.9163C51.6125 78.5365 52.7301 77.4189 54.1099 77.4189C55.4897 77.4189 56.6073 78.5365 56.6073 79.9163Z" fill="black"/>
<path fill-rule="evenodd" clip-rule="evenodd" d="M69.0941 79.9163C69.0941 81.2961 67.9766 82.4137 66.5967 82.4137C65.2169 82.4137 64.0994 81.2961 64.0994 79.9163C64.0994 78.5365 65.2169 77.4189 66.5967 77.4189C67.9766 77.4189 69.0941 78.5365 69.0941 79.9163Z" fill="black"/>
<path fill-rule="evenodd" clip-rule="evenodd" d="M82.4137 79.9163C82.4137 81.2961 81.2961 82.4137 79.9163 82.4137C78.5365 82.4137 77.4189 81.2961 77.4189 79.9163C77.4189 78.5365 78.5365 77.4189 79.9163 77.4189C81.2961 77.4189 82.4137 78.5365 82.4137 79.9163Z" fill="black"/>
<path fill-rule="evenodd" clip-rule="evenodd" d="M94.9005 79.9163C94.9005 81.2961 93.7829 82.4137 92.4031 82.4137C91.0233 82.4137 89.9058 81.2961 89.9058 79.9163C89.9058 78.5365 91.0233 77.4189 92.4031 77.4189C93.7829 77.4189 94.9005 78.5365 94.9005 79.9163Z" fill="black"/>
<path fill-rule="evenodd" clip-rule="evenodd" d="M108.22 79.9163C108.22 81.2961 107.102 82.4137 105.722 82.4137C104.343 82.4137 103.225 81.2961 103.225 79.9163C103.225 78.5365 104.343 77.4189 105.722 77.4189C107.102 77.4189 108.22 78.5365 108.22 79.9163Z" fill="black"/>
<path fill-rule="evenodd" clip-rule="evenodd" d="M120.707 79.9163C120.707 81.2961 119.589 82.4137 118.21 82.4137C116.83 82.4137 115.712 81.2961 115.712 79.9163C115.712 78.5365 116.83 77.4189 118.21 77.4189C119.589 77.4189 120.707 78.5365 120.707 79.9163Z" fill="black"/>
<path fill-rule="evenodd" clip-rule="evenodd" d="M133.194 79.9163C133.194 81.2961 132.076 82.4137 130.696 82.4137C129.317 82.4137 128.199 81.2961 128.199 79.9163C128.199 78.5365 129.317 77.4189 130.696 77.4189C132.076 77.4189 133.194 78.5365 133.194 79.9163Z" fill="black"/>
<path fill-rule="evenodd" clip-rule="evenodd" d="M146.513 79.9163C146.513 81.2961 145.395 82.4137 144.016 82.4137C142.636 82.4137 141.518 81.2961 141.518 79.9163C141.518 78.5365 142.636 77.4189 144.016 77.4189C145.395 77.4189 146.513 78.5365 146.513 79.9163Z" fill="black"/>
<path fill-rule="evenodd" clip-rule="evenodd" d="M4.99476 92.4031C4.99476 93.7829 3.87719 94.9005 2.49738 94.9005C1.11758 94.9005 0 93.7829 0 92.4031C0 91.0233 1.11758 89.9058 2.49738 89.9058C3.87719 89.9058 4.99476 91.0233 4.99476 92.4031Z" fill="black"/>
<path fill-rule="evenodd" clip-rule="evenodd" d="M18.3141 92.4031C18.3141 93.7829 17.1965 94.9005 15.8167 94.9005C14.4369 94.9005 13.3193 93.7829 13.3193 92.4031C13.3193 91.0233 14.4369 89.9058 15.8167 89.9058C17.1965 89.9058 18.3141 91.0233 18.3141 92.4031Z" fill="black"/>
<path fill-rule="evenodd" clip-rule="evenodd" d="M30.8012 92.4031C30.8012 93.7829 29.6836 94.9005 28.3038 94.9005C26.924 94.9005 25.8064 93.7829 25.8064 92.4031C25.8064 91.0233 26.924 89.9058 28.3038 89.9058C29.6836 89.9058 30.8012 91.0233 30.8012 92.4031Z" fill="black"/>
<path fill-rule="evenodd" clip-rule="evenodd" d="M43.288 92.4031C43.288 93.7829 42.1704 94.9005 40.7906 94.9005C39.4108 94.9005 38.2932 93.7829 38.2932 92.4031C38.2932 91.0233 39.4108 89.9058 40.7906 89.9058C42.1704 89.9058 43.288 91.0233 43.288 92.4031Z" fill="black"/>
<path fill-rule="evenodd" clip-rule="evenodd" d="M56.6073 92.4031C56.6073 93.7829 55.4897 94.9005 54.1099 94.9005C52.7301 94.9005 51.6125 93.7829 51.6125 92.4031C51.6125 91.0233 52.7301 89.9058 54.1099 89.9058C55.4897 89.9058 56.6073 91.0233 56.6073 92.4031Z" fill="black"/>
<path fill-rule="evenodd" clip-rule="evenodd" d="M69.0941 92.4031C69.0941 93.7829 67.9766 94.9005 66.5967 94.9005C65.2169 94.9005 64.0994 93.7829 64.0994 92.4031C64.0994 91.0233 65.2169 89.9058 66.5967 89.9058C67.9766 89.9058 69.0941 91.0233 69.0941 92.4031Z" fill="black"/>
<path fill-rule="evenodd" clip-rule="evenodd" d="M82.4137 92.4031C82.4137 93.7829 81.2961 94.9005 79.9163 94.9005C78.5365 94.9005 77.4189 93.7829 77.4189 92.4031C77.4189 91.0233 78.5365 89.9058 79.9163 89.9058C81.2961 89.9058 82.4137 91.0233 82.4137 92.4031Z" fill="black"/>
<path fill-rule="evenodd" clip-rule="evenodd" d="M94.9005 92.4031C94.9005 93.7829 93.7829 94.9005 92.4031 94.9005C91.0233 94.9005 89.9058 93.7829 89.9058 92.4031C89.9058 91.0233 91.0233 89.9058 92.4031 89.9058C93.7829 89.9058 94.9005 91.0233 94.9005 92.4031Z" fill="black"/>
<path fill-rule="evenodd" clip-rule="evenodd" d="M108.22 92.4031C108.22 93.7829 107.102 94.9005 105.722 94.9005C104.343 94.9005 103.225 93.7829 103.225 92.4031C103.225 91.0233 104.343 89.9058 105.722 89.9058C107.102 89.9058 108.22 91.0233 108.22 92.4031Z" fill="black"/>
<path fill-rule="evenodd" clip-rule="evenodd" d="M120.707 92.4031C120.707 93.7829 119.589 94.9005 118.21 94.9005C116.83 94.9005 115.712 93.7829 115.712 92.4031C115.712 91.0233 116.83 89.9058 118.21 89.9058C119.589 89.9058 120.707 91.0233 120.707 92.4031Z" fill="black"/>
<path fill-rule="evenodd" clip-rule="evenodd" d="M133.194 92.4031C133.194 93.7829 132.076 94.9005 130.696 94.9005C129.317 94.9005 128.199 93.7829 128.199 92.4031C128.199 91.0233 129.317 89.9058 130.696 89.9058C132.076 89.9058 133.194 91.0233 133.194 92.4031Z" fill="black"/>
<path fill-rule="evenodd" clip-rule="evenodd" d="M146.513 92.4031C146.513 93.7829 145.395 94.9005 144.016 94.9005C142.636 94.9005 141.518 93.7829 141.518 92.4031C141.518 91.0233 142.636 89.9058 144.016 89.9058C145.395 89.9058 146.513 91.0233 146.513 92.4031Z" fill="black"/>
<path fill-rule="evenodd" clip-rule="evenodd" d="M4.99476 104.89C4.99476 106.27 3.87719 107.387 2.49738 107.387C1.11758 107.387 0 106.27 0 104.89C0 103.51 1.11758 102.393 2.49738 102.393C3.87719 102.393 4.99476 103.51 4.99476 104.89Z" fill="black"/>
<path fill-rule="evenodd" clip-rule="evenodd" d="M18.3141 104.89C18.3141 106.27 17.1965 107.387 15.8167 107.387C14.4369 107.387 13.3193 106.27 13.3193 104.89C13.3193 103.51 14.4369 102.393 15.8167 102.393C17.1965 102.393 18.3141 103.51 18.3141 104.89Z" fill="black"/>
<path fill-rule="evenodd" clip-rule="evenodd" d="M30.8012 104.89C30.8012 106.27 29.6836 107.387 28.3038 107.387C26.924 107.387 25.8064 106.27 25.8064 104.89C25.8064 103.51 26.924 102.393 28.3038 102.393C29.6836 102.393 30.8012 103.51 30.8012 104.89Z" fill="black"/>
<path fill-rule="evenodd" clip-rule="evenodd" d="M43.288 104.89C43.288 106.27 42.1704 107.387 40.7906 107.387C39.4108 107.387 38.2932 106.27 38.2932 104.89C38.2932 103.51 39.4108 102.393 40.7906 102.393C42.1704 102.393 43.288 103.51 43.288 104.89Z" fill="black"/>
<path fill-rule="evenodd" clip-rule="evenodd" d="M56.6073 104.89C56.6073 106.27 55.4897 107.387 54.1099 107.387C52.7301 107.387 51.6125 106.27 51.6125 104.89C51.6125 103.51 52.7301 102.393 54.1099 102.393C55.4897 102.393 56.6073 103.51 56.6073 104.89Z" fill="black"/>
<path fill-rule="evenodd" clip-rule="evenodd" d="M69.0941 104.89C69.0941 106.27 67.9766 107.387 66.5967 107.387C65.2169 107.387 64.0994 106.27 64.0994 104.89C64.0994 103.51 65.2169 102.393 66.5967 102.393C67.9766 102.393 69.0941 103.51 69.0941 104.89Z" fill="black"/>
<path fill-rule="evenodd" clip-rule="evenodd" d="M82.4137 104.89C82.4137 106.27 81.2961 107.387 79.9163 107.387C78.5365 107.387 77.4189 106.27 77.4189 104.89C77.4189 103.51 78.5365 102.393 79.9163 102.393C81.2961 102.393 82.4137 103.51 82.4137 104.89Z" fill="black"/>
<path fill-rule="evenodd" clip-rule="evenodd" d="M94.9005 104.89C94.9005 106.27 93.7829 107.387 92.4031 107.387C91.0233 107.387 89.9058 106.27 89.9058 104.89C89.9058 103.51 91.0233 102.393 92.4031 102.393C93.7829 102.393 94.9005 103.51 94.9005 104.89Z" fill="black"/>
<path fill-rule="evenodd" clip-rule="evenodd" d="M108.22 104.89C108.22 106.27 107.102 107.387 105.722 107.387C104.343 107.387 103.225 106.27 103.225 104.89C103.225 103.51 104.343 102.393 105.722 102.393C107.102 102.393 108.22 103.51 108.22 104.89Z" fill="black"/>
<path fill-rule="evenodd" clip-rule="evenodd" d="M120.707 104.89C120.707 106.27 119.589 107.387 118.21 107.387C116.83 107.387 115.712 106.27 115.712 104.89C115.712 103.51 116.83 102.393 118.21 102.393C119.589 102.393 120.707 103.51 120.707 104.89Z" fill="black"/>
<path fill-rule="evenodd" clip-rule="evenodd" d="M133.194 104.89C133.194 106.27 132.076 107.387 130.696 107.387C129.317 107.387 128.199 106.27 128.199 104.89C128.199 103.51 129.317 102.393 130.696 102.393C132.076 102.393 133.194 103.51 133.194 104.89Z" fill="black"/>
<path fill-rule="evenodd" clip-rule="evenodd" d="M146.513 104.89C146.513 106.27 145.395 107.387 144.016 107.387C142.636 107.387 141.518 106.27 141.518 104.89C141.518 103.51 142.636 102.393 144.016 102.393C145.395 102.393 146.513 103.51 146.513 104.89Z" fill="black"/>
<path fill-rule="evenodd" clip-rule="evenodd" d="M4.99476 118.209C4.99476 119.589 3.87719 120.707 2.49738 120.707C1.11758 120.707 0 119.589 0 118.209C0 116.829 1.11758 115.712 2.49738 115.712C3.87719 115.712 4.99476 116.829 4.99476 118.209Z" fill="black"/>
<path fill-rule="evenodd" clip-rule="evenodd" d="M18.3141 118.209C18.3141 119.589 17.1965 120.707 15.8167 120.707C14.4369 120.707 13.3193 119.589 13.3193 118.209C13.3193 116.829 14.4369 115.712 15.8167 115.712C17.1965 115.712 18.3141 116.829 18.3141 118.209Z" fill="black"/>
<path fill-rule="evenodd" clip-rule="evenodd" d="M30.8012 118.209C30.8012 119.589 29.6836 120.707 28.3038 120.707C26.924 120.707 25.8064 119.589 25.8064 118.209C25.8064 116.829 26.924 115.712 28.3038 115.712C29.6836 115.712 30.8012 116.829 30.8012 118.209Z" fill="black"/>
<path fill-rule="evenodd" clip-rule="evenodd" d="M43.288 118.209C43.288 119.589 42.1704 120.707 40.7906 120.707C39.4108 120.707 38.2932 119.589 38.2932 118.209C38.2932 116.829 39.4108 115.712 40.7906 115.712C42.1704 115.712 43.288 116.829 43.288 118.209Z" fill="black"/>
<path fill-rule="evenodd" clip-rule="evenodd" d="M56.6073 118.209C56.6073 119.589 55.4897 120.707 54.1099 120.707C52.7301 120.707 51.6125 119.589 51.6125 118.209C51.6125 116.829 52.7301 115.712 54.1099 115.712C55.4897 115.712 56.6073 116.829 56.6073 118.209Z" fill="black"/>
<path fill-rule="evenodd" clip-rule="evenodd" d="M69.0941 118.209C69.0941 119.589 67.9766 120.707 66.5967 120.707C65.2169 120.707 64.0994 119.589 64.0994 118.209C64.0994 116.829 65.2169 115.712 66.5967 115.712C67.9766 115.712 69.0941 116.829 69.0941 118.209Z" fill="black"/>
<path fill-rule="evenodd" clip-rule="evenodd" d="M82.4137 118.209C82.4137 119.589 81.2961 120.707 79.9163 120.707C78.5365 120.707 77.4189 119.589 77.4189 118.209C77.4189 116.829 78.5365 115.712 79.9163 115.712C81.2961 115.712 82.4137 116.829 82.4137 118.209Z" fill="black"/>
<path fill-rule="evenodd" clip-rule="evenodd" d="M94.9005 118.209C94.9005 119.589 93.7829 120.707 92.4031 120.707C91.0233 120.707 89.9058 119.589 89.9058 118.209C89.9058 116.829 91.0233 115.712 92.4031 115.712C93.7829 115.712 94.9005 116.829 94.9005 118.209Z" fill="black"/>
<path fill-rule="evenodd" clip-rule="evenodd" d="M108.22 118.209C108.22 119.589 107.102 120.707 105.722 120.707C104.343 120.707 103.225 119.589 103.225 118.209C103.225 116.829 104.343 115.712 105.722 115.712C107.102 115.712 108.22 116.829 108.22 118.209Z" fill="black"/>
<path fill-rule="evenodd" clip-rule="evenodd" d="M120.707 118.209C120.707 119.589 119.589 120.707 118.21 120.707C116.83 120.707 115.712 119.589 115.712 118.209C115.712 116.829 116.83 115.712 118.21 115.712C119.589 115.712 120.707 116.829 120.707 118.209Z" fill="black"/>
<path fill-rule="evenodd" clip-rule="evenodd" d="M133.194 118.209C133.194 119.589 132.076 120.707 130.696 120.707C129.317 120.707 128.199 119.589 128.199 118.209C128.199 116.829 129.317 115.712 130.696 115.712C132.076 115.712 133.194 116.829 133.194 118.209Z" fill="black"/>
<path fill-rule="evenodd" clip-rule="evenodd" d="M146.513 118.209C146.513 119.589 145.395 120.707 144.016 120.707C142.636 120.707 141.518 119.589 141.518 118.209C141.518 116.829 142.636 115.712 144.016 115.712C145.395 115.712 146.513 116.829 146.513 118.209Z" fill="black"/>
<path fill-rule="evenodd" clip-rule="evenodd" d="M4.99476 130.696C4.99476 132.076 3.87719 133.193 2.49738 133.193C1.11758 133.193 0 132.076 0 130.696C0 129.316 1.11758 128.199 2.49738 128.199C3.87719 128.199 4.99476 129.316 4.99476 130.696Z" fill="black"/>
<path fill-rule="evenodd" clip-rule="evenodd" d="M18.3141 130.696C18.3141 132.076 17.1965 133.193 15.8167 133.193C14.4369 133.193 13.3193 132.076 13.3193 130.696C13.3193 129.316 14.4369 128.199 15.8167 128.199C17.1965 128.199 18.3141 129.316 18.3141 130.696Z" fill="black"/>
<path fill-rule="evenodd" clip-rule="evenodd" d="M30.8012 130.696C30.8012 132.076 29.6836 133.193 28.3038 133.193C26.924 133.193 25.8064 132.076 25.8064 130.696C25.8064 129.316 26.924 128.199 28.3038 128.199C29.6836 128.199 30.8012 129.316 30.8012 130.696Z" fill="black"/>
<path fill-rule="evenodd" clip-rule="evenodd" d="M43.288 130.696C43.288 132.076 42.1704 133.193 40.7906 133.193C39.4108 133.193 38.2932 132.076 38.2932 130.696C38.2932 129.316 39.4108 128.199 40.7906 128.199C42.1704 128.199 43.288 129.316 43.288 130.696Z" fill="black"/>
<path fill-rule="evenodd" clip-rule="evenodd" d="M56.6073 130.696C56.6073 132.076 55.4897 133.193 54.1099 133.193C52.7301 133.193 51.6125 132.076 51.6125 130.696C51.6125 129.316 52.7301 128.199 54.1099 128.199C55.4897 128.199 56.6073 129.316 56.6073 130.696Z" fill="black"/>
<path fill-rule="evenodd" clip-rule="evenodd" d="M69.0941 130.696C69.0941 132.076 67.9766 133.193 66.5967 133.193C65.2169 133.193 64.0994 132.076 64.0994 130.696C64.0994 129.316 65.2169 128.199 66.5967 128.199C67.9766 128.199 69.0941 129.316 69.0941 130.696Z" fill="black"/>
<path fill-rule="evenodd" clip-rule="evenodd" d="M82.4137 130.696C82.4137 132.076 81.2961 133.193 79.9163 133.193C78.5365 133.193 77.4189 132.076 77.4189 130.696C77.4189 129.316 78.5365 128.199 79.9163 128.199C81.2961 128.199 82.4137 129.316 82.4137 130.696Z" fill="black"/>
<path fill-rule="evenodd" clip-rule="evenodd" d="M94.9005 130.696C94.9005 132.076 93.7829 133.193 92.4031 133.193C91.0233 133.193 89.9058 132.076 89.9058 130.696C89.9058 129.316 91.0233 128.199 92.4031 128.199C93.7829 128.199 94.9005 129.316 94.9005 130.696Z" fill="black"/>
<path fill-rule="evenodd" clip-rule="evenodd" d="M108.22 130.696C108.22 132.076 107.102 133.193 105.722 133.193C104.343 133.193 103.225 132.076 103.225 130.696C103.225 129.316 104.343 128.199 105.722 128.199C107.102 128.199 108.22 129.316 108.22 130.696Z" fill="black"/>
<path fill-rule="evenodd" clip-rule="evenodd" d="M120.707 130.696C120.707 132.076 119.589 133.193 118.21 133.193C116.83 133.193 115.712 132.076 115.712 130.696C115.712 129.316 116.83 128.199 118.21 128.199C119.589 128.199 120.707 129.316 120.707 130.696Z" fill="black"/>
<path fill-rule="evenodd" clip-rule="evenodd" d="M133.194 130.696C133.194 132.076 132.076 133.193 130.696 133.193C129.317 133.193 128.199 132.076 128.199 130.696C128.199 129.316 129.317 128.199 130.696 128.199C132.076 128.199 133.194 129.316 133.194 130.696Z" fill="black"/>
<path fill-rule="evenodd" clip-rule="evenodd" d="M146.513 130.696C146.513 132.076 145.395 133.193 144.016 133.193C142.636 133.193 141.518 132.076 141.518 130.696C141.518 129.316 142.636 128.199 144.016 128.199C145.395 128.199 146.513 129.316 146.513 130.696Z" fill="black"/>
<path fill-rule="evenodd" clip-rule="evenodd" d="M4.99476 144.016C4.99476 145.396 3.87719 146.513 2.49738 146.513C1.11758 146.513 0 145.396 0 144.016C0 142.636 1.11758 141.519 2.49738 141.519C3.87719 141.519 4.99476 142.636 4.99476 144.016Z" fill="black"/>
<path fill-rule="evenodd" clip-rule="evenodd" d="M18.3141 144.016C18.3141 145.396 17.1965 146.513 15.8167 146.513C14.4369 146.513 13.3193 145.396 13.3193 144.016C13.3193 142.636 14.4369 141.519 15.8167 141.519C17.1965 141.519 18.3141 142.636 18.3141 144.016Z" fill="black"/>
<path fill-rule="evenodd" clip-rule="evenodd" d="M30.8012 144.016C30.8012 145.396 29.6836 146.513 28.3038 146.513C26.924 146.513 25.8064 145.396 25.8064 144.016C25.8064 142.636 26.924 141.519 28.3038 141.519C29.6836 141.519 30.8012 142.636 30.8012 144.016Z" fill="black"/>
<path fill-rule="evenodd" clip-rule="evenodd" d="M43.288 144.016C43.288 145.396 42.1704 146.513 40.7906 146.513C39.4108 146.513 38.2932 145.396 38.2932 144.016C38.2932 142.636 39.4108 141.519 40.7906 141.519C42.1704 141.519 43.288 142.636 43.288 144.016Z" fill="black"/>
<path fill-rule="evenodd" clip-rule="evenodd" d="M56.6073 144.016C56.6073 145.396 55.4897 146.513 54.1099 146.513C52.7301 146.513 51.6125 145.396 51.6125 144.016C51.6125 142.636 52.7301 141.519 54.1099 141.519C55.4897 141.519 56.6073 142.636 56.6073 144.016Z" fill="black"/>
<path fill-rule="evenodd" clip-rule="evenodd" d="M69.0941 144.016C69.0941 145.396 67.9766 146.513 66.5967 146.513C65.2169 146.513 64.0994 145.396 64.0994 144.016C64.0994 142.636 65.2169 141.519 66.5967 141.519C67.9766 141.519 69.0941 142.636 69.0941 144.016Z" fill="black"/>
<path fill-rule="evenodd" clip-rule="evenodd" d="M82.4137 144.016C82.4137 145.396 81.2961 146.513 79.9163 146.513C78.5365 146.513 77.4189 145.396 77.4189 144.016C77.4189 142.636 78.5365 141.519 79.9163 141.519C81.2961 141.519 82.4137 142.636 82.4137 144.016Z" fill="black"/>
<path fill-rule="evenodd" clip-rule="evenodd" d="M94.9005 144.016C94.9005 145.396 93.7829 146.513 92.4031 146.513C91.0233 146.513 89.9058 145.396 89.9058 144.016C89.9058 142.636 91.0233 141.519 92.4031 141.519C93.7829 141.519 94.9005 142.636 94.9005 144.016Z" fill="black"/>
<path fill-rule="evenodd" clip-rule="evenodd" d="M108.22 144.016C108.22 145.396 107.102 146.513 105.722 146.513C104.343 146.513 103.225 145.396 103.225 144.016C103.225 142.636 104.343 141.519 105.722 141.519C107.102 141.519 108.22 142.636 108.22 144.016Z" fill="black"/>
<path fill-rule="evenodd" clip-rule="evenodd" d="M120.707 144.016C120.707 145.396 119.589 146.513 118.21 146.513C116.83 146.513 115.712 145.396 115.712 144.016C115.712 142.636 116.83 141.519 118.21 141.519C119.589 141.519 120.707 142.636 120.707 144.016Z" fill="black"/>
<path fill-rule="evenodd" clip-rule="evenodd" d="M133.194 144.016C133.194 145.396 132.076 146.513 130.696 146.513C129.317 146.513 128.199 145.396 128.199 144.016C128.199 142.636 129.317 141.519 130.696 141.519C132.076 141.519 133.194 142.636 133.194 144.016Z" fill="black"/>
<path fill-rule="evenodd" clip-rule="evenodd" d="M146.513 144.016C146.513 145.396 145.395 146.513 144.016 146.513C142.636 146.513 141.518 145.396 141.518 144.016C141.518 142.636 142.636 141.519 144.016 141.519C145.395 141.519 146.513 142.636 146.513 144.016Z" fill="black"/>
<path fill-rule="evenodd" clip-rule="evenodd" d="M4.99476 156.503C4.99476 157.883 3.87719 159 2.49738 159C1.11758 159 0 157.883 0 156.503C0 155.123 1.11758 154.005 2.49738 154.005C3.87719 154.005 4.99476 155.123 4.99476 156.503Z" fill="black"/>
<path fill-rule="evenodd" clip-rule="evenodd" d="M18.3141 156.503C18.3141 157.883 17.1965 159 15.8167 159C14.4369 159 13.3193 157.883 13.3193 156.503C13.3193 155.123 14.4369 154.005 15.8167 154.005C17.1965 154.005 18.3141 155.123 18.3141 156.503Z" fill="black"/>
<path fill-rule="evenodd" clip-rule="evenodd" d="M30.8012 156.503C30.8012 157.883 29.6836 159 28.3038 159C26.924 159 25.8064 157.883 25.8064 156.503C25.8064 155.123 26.924 154.005 28.3038 154.005C29.6836 154.005 30.8012 155.123 30.8012 156.503Z" fill="black"/>
<path fill-rule="evenodd" clip-rule="evenodd" d="M43.288 156.503C43.288 157.883 42.1704 159 40.7906 159C39.4108 159 38.2932 157.883 38.2932 156.503C38.2932 155.123 39.4108 154.005 40.7906 154.005C42.1704 154.005 43.288 155.123 43.288 156.503Z" fill="black"/>
<path fill-rule="evenodd" clip-rule="evenodd" d="M56.6073 156.503C56.6073 157.883 55.4897 159 54.1099 159C52.7301 159 51.6125 157.883 51.6125 156.503C51.6125 155.123 52.7301 154.005 54.1099 154.005C55.4897 154.005 56.6073 155.123 56.6073 156.503Z" fill="black"/>
<path fill-rule="evenodd" clip-rule="evenodd" d="M69.0941 156.503C69.0941 157.883 67.9766 159 66.5967 159C65.2169 159 64.0994 157.883 64.0994 156.503C64.0994 155.123 65.2169 154.005 66.5967 154.005C67.9766 154.005 69.0941 155.123 69.0941 156.503Z" fill="black"/>
<path fill-rule="evenodd" clip-rule="evenodd" d="M82.4137 156.503C82.4137 157.883 81.2961 159 79.9163 159C78.5365 159 77.4189 157.883 77.4189 156.503C77.4189 155.123 78.5365 154.005 79.9163 154.005C81.2961 154.005 82.4137 155.123 82.4137 156.503Z" fill="black"/>
<path fill-rule="evenodd" clip-rule="evenodd" d="M94.9005 156.503C94.9005 157.883 93.7829 159 92.4031 159C91.0233 159 89.9058 157.883 89.9058 156.503C89.9058 155.123 91.0233 154.005 92.4031 154.005C93.7829 154.005 94.9005 155.123 94.9005 156.503Z" fill="black"/>
<path fill-rule="evenodd" clip-rule="evenodd" d="M108.22 156.503C108.22 157.883 107.102 159 105.722 159C104.343 159 103.225 157.883 103.225 156.503C103.225 155.123 104.343 154.005 105.722 154.005C107.102 154.005 108.22 155.123 108.22 156.503Z" fill="black"/>
<path fill-rule="evenodd" clip-rule="evenodd" d="M120.707 156.503C120.707 157.883 119.589 159 118.21 159C116.83 159 115.712 157.883 115.712 156.503C115.712 155.123 116.83 154.005 118.21 154.005C119.589 154.005 120.707 155.123 120.707 156.503Z" fill="black"/>
<path fill-rule="evenodd" clip-rule="evenodd" d="M133.194 156.503C133.194 157.883 132.076 159 130.696 159C129.317 159 128.199 157.883 128.199 156.503C128.199 155.123 129.317 154.005 130.696 154.005C132.076 154.005 133.194 155.123 133.194 156.503Z" fill="black"/>
<path fill-rule="evenodd" clip-rule="evenodd" d="M146.513 156.503C146.513 157.883 145.395 159 144.016 159C142.636 159 141.518 157.883 141.518 156.503C141.518 155.123 142.636 154.005 144.016 154.005C145.395 154.005 146.513 155.123 146.513 156.503Z" fill="black"/>
<path fill-rule="evenodd" clip-rule="evenodd" d="M18.3141 2.49738C18.3141 3.87719 17.1965 4.99476 15.8167 4.99476C14.4369 4.99476 13.3193 3.87719 13.3193 2.49738C13.3193 1.11758 14.4369 0 15.8167 0C17.1965 0 18.3141 1.11758 18.3141 2.49738Z" fill="black"/>
<path fill-rule="evenodd" clip-rule="evenodd" d="M30.8012 2.49738C30.8012 3.87719 29.6836 4.99476 28.3038 4.99476C26.924 4.99476 25.8064 3.87719 25.8064 2.49738C25.8064 1.11758 26.924 0 28.3038 0C29.6836 0 30.8012 1.11758 30.8012 2.49738Z" fill="black"/>
<path fill-rule="evenodd" clip-rule="evenodd" d="M43.288 2.49738C43.288 3.87719 42.1704 4.99476 40.7906 4.99476C39.4108 4.99476 38.2932 3.87719 38.2932 2.49738C38.2932 1.11758 39.4108 0 40.7906 0C42.1704 0 43.288 1.11758 43.288 2.49738Z" fill="black"/>
<path fill-rule="evenodd" clip-rule="evenodd" d="M56.6073 2.49738C56.6073 3.87719 55.4897 4.99476 54.1099 4.99476C52.7301 4.99476 51.6125 3.87719 51.6125 2.49738C51.6125 1.11758 52.7301 0 54.1099 0C55.4897 0 56.6073 1.11758 56.6073 2.49738Z" fill="black"/>
<path fill-rule="evenodd" clip-rule="evenodd" d="M69.0941 2.49738C69.0941 3.87719 67.9766 4.99476 66.5967 4.99476C65.2169 4.99476 64.0994 3.87719 64.0994 2.49738C64.0994 1.11758 65.2169 0 66.5967 0C67.9766 0 69.0941 1.11758 69.0941 2.49738Z" fill="black"/>
<path fill-rule="evenodd" clip-rule="evenodd" d="M82.4137 2.49738C82.4137 3.87719 81.2961 4.99476 79.9163 4.99476C78.5365 4.99476 77.4189 3.87719 77.4189 2.49738C77.4189 1.11758 78.5365 0 79.9163 0C81.2961 0 82.4137 1.11758 82.4137 2.49738Z" fill="black"/>
<path fill-rule="evenodd" clip-rule="evenodd" d="M94.9005 2.49738C94.9005 3.87719 93.7829 4.99476 92.4031 4.99476C91.0233 4.99476 89.9058 3.87719 89.9058 2.49738C89.9058 1.11758 91.0233 0 92.4031 0C93.7829 0 94.9005 1.11758 94.9005 2.49738Z" fill="black"/>
<path fill-rule="evenodd" clip-rule="evenodd" d="M108.22 2.49738C108.22 3.87719 107.102 4.99476 105.722 4.99476C104.343 4.99476 103.225 3.87719 103.225 2.49738C103.225 1.11758 104.343 0 105.722 0C107.102 0 108.22 1.11758 108.22 2.49738Z" fill="black"/>
<path fill-rule="evenodd" clip-rule="evenodd" d="M120.707 2.49738C120.707 3.87719 119.589 4.99476 118.21 4.99476C116.83 4.99476 115.712 3.87719 115.712 2.49738C115.712 1.11758 116.83 0 118.21 0C119.589 0 120.707 1.11758 120.707 2.49738Z" fill="black"/>
<path fill-rule="evenodd" clip-rule="evenodd" d="M133.194 2.49738C133.194 3.87719 132.076 4.99476 130.696 4.99476C129.317 4.99476 128.199 3.87719 128.199 2.49738C128.199 1.11758 129.317 0 130.696 0C132.076 0 133.194 1.11758 133.194 2.49738Z" fill="black"/>
<path fill-rule="evenodd" clip-rule="evenodd" d="M146.513 2.49738C146.513 3.87719 145.395 4.99476 144.016 4.99476C142.636 4.99476 141.518 3.87719 141.518 2.49738C141.518 1.11758 142.636 0 144.016 0C145.395 0 146.513 1.11758 146.513 2.49738Z" fill="black"/>
</g>
</svg>
